<?xml version="1.0" encoding="UTF-8" standalone="no"?>
<!-- Created with Inkscape (http://www.inkscape.org/) -->

<svg
   width="100mm"
   height="100mm"
   viewBox="0 0 100 100"
   version="1.1"
   id="svg1"
   inkscape:version="1.3.2 (091e20e, 2023-11-25, custom)"
   sodipodi:docname="j.svg"
   xmlns:inkscape="http://www.inkscape.org/namespaces/inkscape"
   xmlns:sodipodi="http://sodipodi.sourceforge.net/DTD/sodipodi-0.dtd"
   xmlns="http://www.w3.org/2000/svg"
   xmlns:svg="http://www.w3.org/2000/svg">
  <sodipodi:namedview
     id="namedview1"
     pagecolor="#ffffff"
     bordercolor="#000000"
     borderopacity="0.25"
     inkscape:showpageshadow="2"
     inkscape:pageopacity="0.0"
     inkscape:pagecheckerboard="0"
     inkscape:deskcolor="#d1d1d1"
     inkscape:document-units="mm"
     inkscape:zoom="0.97407728"
     inkscape:cx="42.091116"
     inkscape:cy="165.28463"
     inkscape:window-width="1920"
     inkscape:window-height="992"
     inkscape:window-x="-8"
     inkscape:window-y="-8"
     inkscape:window-maximized="1"
     inkscape:current-layer="layer1" />
  <defs
     id="defs1" />
  <g
     inkscape:label="Calque 1"
     inkscape:groupmode="layer"
     id="layer1">
    <path
       style="fill:#daadf6;stroke-width:0.572546;fill-opacity:1"
       d="m 21.31235,25.795344 c 0,0 25.256129,-53.430353 55.563492,-0.580764"
       id="path1" />
    <path
       style="fill:#daadf6;fill-opacity:1;stroke-width:0.629095"
       d="m 66.260584,32.342306 c 0.626944,2.938679 2.604331,5.088314 3.49064,7.885546 0.940833,2.969299 1.389995,8.019466 0.585263,11.046768 -0.218029,0.820215 -0.502902,1.638227 -0.773378,2.437988 -0.19391,0.573379 -0.318033,1.275989 -0.543456,1.831412 -0.446087,1.09915 -1.037283,2.027913 -1.369081,3.196212 -0.615839,2.168415 -1.092402,4.237413 -1.35864,6.497411 -0.3984,3.381898 -0.857638,6.208192 -0.470293,9.518656 0.736842,6.29749 1.349761,12.319297 0.0836,18.594031 -0.269677,1.336441 -1.208216,2.990723 -0.167224,4.129414 1.597919,1.747857 3.351179,-2.7103 3.772825,-4.129414 0.585392,-1.970236 0.849105,-4.090745 0.951042,-6.147462 0.04729,-0.954033 0.198578,-1.902458 0.198578,-2.85793 0,-1.060588 -0.1377,-1.550003 -0.219472,-2.589636 -0.154715,-1.967205 -0.03225,-1.682457 -0.282179,-3.662817 -0.180867,-1.432848 -0.465708,-2.625749 -0.710671,-4.001095 -0.351075,-1.971172 -0.358616,-6.747715 -0.09407,-8.620449 0.26681,-1.888667 0.800021,-3.730814 1.107809,-5.610868 0.370729,-2.264469 0.537659,-4.572328 1.013755,-6.812367 0.0706,-0.332187 0.23689,-0.629909 0.355333,-0.944864 0.09407,-0.458832 0.196819,-0.915555 0.282176,-1.376475 0.201581,-1.08845 0.08519,-2.172065 0.177663,-3.266202 0.0706,-0.835204 0.141197,-1.736748 0.06271,-2.577967 -0.02329,-0.249605 -0.142559,-0.477452 -0.188133,-0.723234 -0.246883,-1.331877 -0.687519,-2.225081 -1.013748,-3.499503 -0.01429,-0.05608 -0.119811,-0.892578 -0.146325,-1.026524 -0.249193,-1.258964 -0.656482,-2.242278 -1.275025,-3.277865 -0.184161,-0.308318 -0.448606,-0.732401 -0.574809,-1.073183 -0.152915,-0.412938 -0.201874,-0.847045 -0.386687,-1.248156 -0.139482,-0.302729 -0.434369,-0.554979 -0.522555,-0.874878 -0.03396,-0.123259 -0.130437,-0.281354 -0.135851,-0.408273 -0.0047,-0.116512 0.101165,-0.31858 0,-0.349953 -0.408989,-0.126802 -0.04454,0.184045 -0.261271,-0.02331"
       id="path7" />
    <path
       style="fill:#daadf6;fill-opacity:1;stroke-width:0.641698"
       d="m 28.281943,33.748695 c 0.143368,0.592522 -0.111937,1.292095 0,1.893377 0.482121,2.589528 0.886354,5.41518 0.512101,8.095395 -0.199166,1.426265 -0.689464,2.849351 -1.118261,4.199406 -0.391489,1.232597 -0.692932,2.474263 -1.233223,3.641106 -0.464925,1.004079 -1.072902,1.937294 -1.525851,2.937159 -0.729716,1.610831 -1.191336,3.424129 -1.755772,5.109689 -0.360334,1.076041 -0.760681,2.173731 -1.191421,3.216311 -0.246661,0.597034 -0.565864,1.158689 -0.752474,1.78414 -0.335177,1.123408 -1.031141,4.034604 -1.201869,5.595168 -0.185763,1.698071 0.373626,4.542858 0.689769,6.129191 0.124323,0.623809 0.551516,1.213429 0.742023,1.820553 0.556681,1.774085 0.770292,3.836079 0.846535,5.728679 0.04003,0.993476 0.01399,2.145771 -0.18811,3.119212 -0.574781,2.768182 -2.125474,5.635117 -0.742022,8.423097 0.491762,0.991017 1.000099,1.296854 1.93344,1.420031 1.418747,0.187241 2.287208,-1.428241 2.602309,-2.779378 0.142443,-0.610772 0.329949,-1.207674 0.428492,-1.832693 0.387897,-2.460273 0.135876,-5.097299 0.03136,-7.573503 -0.08454,-2.002632 -0.134542,-3.835967 -0.459843,-5.862177 -0.11408,-0.710657 -0.418547,-1.367208 -0.543455,-2.075433 -0.11681,-0.662353 -0.04323,-1.347274 -0.0627,-2.014745 -0.02387,-0.81799 -0.30208,-1.653101 -0.40759,-2.427403 -0.07875,-0.57781 -0.108282,-1.163683 -0.135854,-1.747734 -0.06117,-1.295138 0.06615,-1.546623 0.18811,-3.022116 0.03705,-0.448185 -0.0086,-0.909784 0.0836,-1.347208 0.233474,-1.107151 0.746408,-2.109883 1.180967,-3.11922 0.45766,-1.062979 0.757452,-2.218674 1.201869,-3.289129 0.401496,-0.967066 0.97141,-1.881679 1.337734,-2.864335 0.174324,-0.467649 0.285446,-0.964559 0.459847,-1.432171 0.404868,-1.085569 1.08565,-2.068128 1.504948,-3.155628 0.303494,-0.787151 0.442481,-1.706161 0.637514,-2.536638 0.734454,-3.127443 1.060181,-5.827483 0.668866,-9.07849 -0.207199,-1.721296 -0.356288,-3.450935 -0.616612,-5.170371 -0.04411,-0.291351 -0.170691,-0.818891 -0.09407,-1.068058 0.05925,-0.192656 -0.230022,-0.631697 -0.261276,-0.813181 -8.35e-4,-0.005 -0.256788,-0.140439 -0.271728,-0.157769 -0.187455,-0.217708 -0.202144,-0.255613 -0.470295,0.121389"
       id="path4" />
    <path
       style="fill:#daadf6;fill-opacity:1;stroke-width:0.69843"
       d="m 40.670349,32.447713 c -0.334432,4.902882 -0.112278,9.937864 -1.003299,14.708652 -0.555604,2.974852 -2.307836,5.279631 -3.250271,8.066038 -0.653162,1.931147 -5.18996,13.991595 -3.971393,19.122691 0.671217,2.826334 1.849349,5.384802 2.92629,7.965388 0.202121,0.484326 1.425037,1.804061 1.828931,1.998533 0.924881,0.445341 1.995686,-0.404969 2.466443,-1.495306 0.372121,-0.861875 -0.199977,-6.932126 -0.240373,-7.620312 -0.256991,-4.377836 -0.221098,-8.582479 0.292628,-12.911414 0.382493,-3.223043 1.028802,-6.513854 1.943894,-9.532586 0.704056,-2.322566 0.198286,0.424254 1.034653,-2.631163 0.808406,-2.953314 0.933125,-5.734868 0.627061,-8.828071 -0.235152,-2.376562 -0.04824,-0.05892 -0.292628,-1.595957 -0.219743,-1.381967 -0.249134,-2.791182 -0.114952,-4.183985 0.04645,-0.482291 0.075,-1.10575 0.198581,-1.567197 0.07448,-0.278101 0.25938,-0.56643 0.323981,-0.86268 0.01311,-0.05969 0.02791,-0.23613 0,-0.186908 -0.116633,0.205588 -0.222948,0.421756 -0.334434,0.63263"
       id="path5" />
    <path
       style="fill:#daadf6;fill-opacity:1;stroke-width:0.653795"
       d="m 53.760702,33.750383 c 0.648257,1.891649 1.376299,3.955207 1.557211,6.022309 0.404124,4.617646 0.172632,9.329305 -0.564361,13.884069 -0.08849,0.546892 -0.284817,1.064107 -0.365788,1.612673 -0.348215,2.359292 -0.375019,4.77821 -0.752471,7.131021 -0.262919,1.638892 -0.641976,3.248177 -0.992848,4.863202 -0.338224,1.556823 -0.893433,3.03648 -1.254125,4.58603 -0.139784,0.600479 -0.169382,1.230863 -0.282178,1.839451 -0.09987,0.538799 -0.363054,1.048196 -0.355335,1.600069 0.02076,1.490657 0.140323,7.542457 0.909243,10.343755 0.256697,0.935198 0.96135,3.705235 1.797575,3.779702 0.393635,0.03507 0.879641,-0.237928 1.045101,-0.667754 0.727674,-1.890202 1.018239,-7.634491 1.118264,-9.247645 0.04597,-0.741712 -0.03253,-1.495078 0.0627,-2.230021 1.498073,-11.561411 0.576247,-2.860926 1.693067,-9.864994 0.325493,-2.041312 0.322265,-2.821555 0.543454,-4.737214 0.189373,-1.640153 0.478802,-3.042509 0.647964,-4.749815 0.0937,-0.945664 -0.04494,-1.087524 0,-1.864649 0.0252,-0.435412 0.126015,-0.704318 0.198579,-1.146511 0.217465,-1.325358 0.357081,-2.68068 0.376238,-4.03167 0.02098,-1.482228 -0.137632,-2.948474 -0.209026,-4.422241 -0.102661,-2.119286 0.04782,-0.239606 -0.01042,-1.82685 -0.03874,-1.055724 -0.03993,-0.36329 -0.188111,-1.411087 -0.181905,-1.286513 -0.265562,-2.616841 -0.512101,-3.893086 -0.389396,-2.015765 -0.982395,-4.86108 -0.982395,-6.954631"
       id="path6" />
    <ellipse
       style="fill:#daadf6;fill-opacity:1;stroke-width:0.572546"
       id="path2"
       cx="28.573484"
       cy="28.505581"
       rx="10.839089"
       ry="5.4204707" />
    <ellipse
       style="fill:#daadf6;fill-opacity:1;stroke-width:0.572546"
       id="path2-7"
       cx="68.985901"
       cy="28.292482"
       rx="10.839089"
       ry="5.4204707" />
    <ellipse
       style="fill:#daadf6;fill-opacity:1;stroke:none;stroke-width:0.674622"
       id="path2-5"
       cx="48.477879"
       cy="28.873245"
       rx="15.048443"
       ry="5.4204707" />
    <ellipse
       style="fill:#c600c6;stroke-width:0.621731;fill-opacity:1"
       id="path3"
       cx="53.408684"
       cy="10.30829"
       rx="7.4716058"
       ry="3.6781764" />
    <ellipse
       style="fill:#c600c6;stroke-width:0.495838;fill-opacity:1"
       id="path3-9"
       cx="62.18409"
       cy="16.956614"
       rx="5.4721618"
       ry="3.1942058" />
    <ellipse
       style="fill:#c600c6;stroke-width:0.572546;fill-opacity:1"
       id="path8"
       cx="51.942474"
       cy="18.553537"
       rx="2.9657845"
       ry="2.2164419" />
    <path
       style="fill:#f2f2f2;fill-opacity:1;stroke-width:0.264583"
       d="m 65.627698,9.2897745 c 0.375598,0.082281 0.211397,0.047231 0.492348,0.1063363"
       id="path10" />
    <path
       style="fill:#f2f2f2;fill-opacity:1;stroke-width:0.572546"
       d="m 23.905286,24.774716 c 0.507003,-0.211661 0.9912,0.06791 1.496498,0.06791 0.473578,0 1.078802,-0.154019 1.551584,-0.02547 0.208597,0.05673 0.425731,0.187655 0.633489,0.229176 0.296506,0.05927 0.862064,0.06767 1.193525,0.144305 0.120601,0.02787 0.0687,0.0895 0.174437,0.13581 0.235461,0.103128 0.552358,0.103769 0.807925,0.19523 0.477338,0.170825 0.879163,0.384847 1.377145,0.509278 0.955251,0.238687 2.015589,0.244036 2.974637,0.492301 0.377528,0.09773 0.504666,0.44977 0.881374,0.568693 0.495877,0.156551 0.997093,0.169765 1.514859,0.169765 0.471758,0 1.42479,-0.03185 1.827015,-0.229175 0.347821,-0.170637 0.510424,-0.359203 0.908917,-0.432884 0.884505,-0.163561 1.781834,-0.266901 2.653299,-0.483816 0.201015,-0.05004 0.240782,-0.146693 0.477412,-0.220686 0.430363,-0.134592 1.178627,-0.199692 1.579126,-0.271614 0.624149,-0.112088 0.276394,-0.02013 0.954822,-0.07639 0.319067,-0.02648 0.604838,-0.197452 0.927281,-0.229176 0.319555,-0.03145 0.635921,0.08833 0.954819,0.06791 1.768849,-0.113339 3.281528,-0.239128 5.040354,0 0.334259,0.04546 0.675318,0.01218 1.009906,0.05092 0.270877,0.03129 0.557155,0.156359 0.83547,0.220687 0.22049,0.05096 0.343172,-0.01411 0.504955,0.118836 0.275701,0.226569 2.304506,0.725383 2.405415,0.891236 0.03534,0.05809 0.07304,0.437055 0,0.492301 -0.0437,0.03307 -1.054093,-0.103048 -1.175167,-0.152785 -0.219654,-0.09026 0.0074,-0.02795 -0.367238,-0.25464 -0.47116,-0.285113 -1.136251,-0.383535 -1.551586,-0.687524 -0.336874,-0.246561 -2.540411,-0.0015 -2.956273,0.02547 -0.497075,0.03225 -0.991769,-0.0866 -1.468957,-0.152785 -0.826063,-0.114556 -1.837728,0.0048 -2.634938,0.178253 -0.280997,0.06112 -0.581184,0.202245 -0.872193,0.212199 -0.379234,0.01314 -0.780957,-0.04166 -1.175165,-0.02547 -0.200633,0.0083 -1.572426,0.274006 -1.661756,0.331029 -0.276505,0.17651 -0.514762,0.372123 -0.807925,0.53474 -0.860044,0.477076 -1.874549,0.686213 -2.781833,1.060996 -0.264955,0.10946 -0.353251,0.300488 -0.725297,0.364983 -0.233087,0.04041 -0.55479,-0.02547 -0.798748,-0.02547 -0.961713,0 -2.088735,-0.05639 -2.947091,-0.500789 -0.384699,-0.199173 -0.760043,-0.43765 -1.156803,-0.628108 -0.395683,-0.189939 -0.931725,-0.166404 -1.312878,-0.373471 -0.187637,-0.101942 -0.329116,-0.263548 -0.504953,-0.381958 -0.365085,-0.245864 -0.887468,-0.362216 -1.303699,-0.517776 -0.258909,-0.09675 -0.477987,-0.28311 -0.743659,-0.364983 -0.542211,-0.167088 -1.153638,-0.349331 -1.726023,-0.432885 -0.265847,-0.03881 -0.568885,0.0039 -0.844649,-0.02547 -0.65814,-0.07021 -1.359208,-0.140689 -2.010634,-0.271614 -0.180078,-0.03619 -0.426187,0.06187 -0.596763,-0.01702 -0.18987,-0.08777 -0.373359,-0.186742 -0.560039,-0.280107 z"
       id="path12" />
    <path
       style="fill:#f2f2f2;fill-opacity:1;stroke-width:0.572546"
       d="m 62.355201,26.87124 c 0.992814,-0.153474 1.675033,-0.81231 2.515589,-1.230753 0.592676,-0.295048 1.39683,-0.331277 2.038173,-0.449863 0.888406,-0.164266 1.767392,-0.365998 2.671665,-0.415908 0.578462,-0.03195 2.038376,-0.03116 2.598218,0.13581 0.305317,0.09104 0.685353,0.25464 1.009903,0.25464 0.01849,0 -0.04106,-0.01106 -0.0551,0 -0.100072,0.07828 -0.08047,0.111238 -0.192803,0.178254 -0.206883,0.123404 -0.543158,0.203717 -0.789565,0.203717 -0.460247,0 -0.908834,-0.121914 -1.367965,-0.152785 -0.365708,-0.02459 -0.743877,0 -1.110896,0 -0.742719,0 -1.452332,0.03648 -2.185073,0.08489 -0.442708,0.02924 -0.91139,-0.0069 -1.34042,0.144305 -0.687329,0.242075 -1.269261,0.700251 -1.94637,0.950649 -0.26795,0.09911 -0.738738,0.237757 -1.037448,0.152785 -0.130756,-0.03719 0.0913,-0.113194 -0.211168,-0.04244 -0.203635,0.04764 -0.397839,0.124494 -0.596759,0.186743 z"
       id="path13" />
    <path
       style="fill:#f2f2f2;fill-opacity:1;stroke-width:0.572546"
       d="m 24.338097,22.745858 c 0.553741,-0.628598 0.944541,-1.324925 1.356285,-2.036601 0.101084,-0.174724 0.302968,-0.330121 0.380103,-0.511147 0.06584,-0.154515 0.351895,-0.860261 0.457857,-0.966384 0.08861,-0.08875 0.27506,-0.213862 0.310994,-0.343429 0.195849,-0.706181 0.606887,-1.380623 1.019373,-2.004651 0.280606,-0.424516 0.71454,-0.634073 1.036649,-1.00632 0.03958,-0.04571 -0.05776,-0.169164 0.05183,-0.191681 0.03734,-0.0077 0.212231,-0.01555 0.241886,0.01603 0.346583,0.369717 -0.113133,0.932665 -0.293718,1.285853 -0.4709,0.920945 -1.104136,1.119873 -1.667279,1.900825 -0.341349,0.473375 -0.570838,1.012733 -0.786125,1.541426 -0.08967,0.22022 -0.121143,0.499114 -0.276441,0.686854 -0.163291,0.197431 -0.268896,0.255153 -0.475131,0.391348 -0.30339,0.200356 -0.467683,0.549075 -0.742934,0.766718 -0.202009,0.159725 -0.408901,0.314143 -0.613351,0.471215 z"
       id="path15" />
    <path
       style="fill:#f2f2f2;fill-opacity:1;stroke-width:0.572546"
       d="m 29.417684,15.102619 c 0.307533,-0.217349 0.434253,-0.348571 0.587435,-0.62296 0.281294,-0.503868 0.42366,-1.069181 0.734295,-1.557399 0.08513,-0.13382 0.24096,-0.203013 0.328271,-0.327454 0.140073,-0.19965 0.282372,-0.526517 0.48377,-0.686852 0.434018,-0.345526 0.921925,-0.55913 1.243981,-1.022292 0.142646,-0.20515 0.251289,-0.540821 0.406023,-0.726789 0.285497,-0.3431308 1.192662,-1.3178348 1.641362,-1.3497456 0.230256,-0.016395 -0.100158,0.5354601 -0.138223,0.5910136 -0.22708,0.3314821 -0.50322,0.5978581 -0.760211,0.910479 -0.327206,0.398038 -0.525235,0.846731 -0.932984,1.198 -0.557665,0.480419 -1.232826,0.926013 -1.693196,1.493507 -0.700651,0.863681 -0.769205,1.60325 -1.900525,2.100492 z"
       id="path16" />
    <path
       style="fill:#f2f2f2;fill-opacity:1;stroke-width:0.572546"
       d="m 36.112716,8.3139545 c 0.259491,-0.4577895 0.625028,-0.8433662 0.907069,-1.2858539 0.339372,-0.532432 1.653202,-1.3904192 2.306546,-1.5414252 0.167459,-0.038706 0.33892,-0.037481 0.492411,-0.1118202 0.04316,-0.0209 0.54553,-0.2149566 0.587435,-0.12778 0.194991,0.4056249 -1.469118,1.0288938 -1.788222,1.2459195 -0.480268,0.3266321 -1.938524,1.8836745 -1.986913,1.8848532 -0.174256,0.00415 -0.345549,-0.042586 -0.518326,-0.063901 z"
       id="path17" />
  </g>
</svg>
