<?xml version="1.0" encoding="UTF-8" standalone="no"?>
<!-- Created with Inkscape (http://www.inkscape.org/) -->

<svg
   width="100mm"
   height="100mm"
   viewBox="0 0 100 100"
   version="1.1"
   id="svg1"
   inkscape:version="1.3.2 (091e20e, 2023-11-25, custom)"
   sodipodi:docname="jell.svg"
   xmlns:inkscape="http://www.inkscape.org/namespaces/inkscape"
   xmlns:sodipodi="http://sodipodi.sourceforge.net/DTD/sodipodi-0.dtd"
   xmlns:xlink="http://www.w3.org/1999/xlink"
   xmlns="http://www.w3.org/2000/svg"
   xmlns:svg="http://www.w3.org/2000/svg">
  <sodipodi:namedview
     id="namedview1"
     pagecolor="#ffffff"
     bordercolor="#000000"
     borderopacity="0.25"
     inkscape:showpageshadow="2"
     inkscape:pageopacity="0.0"
     inkscape:pagecheckerboard="0"
     inkscape:deskcolor="#d1d1d1"
     inkscape:document-units="mm"
     inkscape:zoom="0.68877665"
     inkscape:cx="-97.273913"
     inkscape:cy="195.99968"
     inkscape:window-width="2727"
     inkscape:window-height="742"
     inkscape:window-x="0"
     inkscape:window-y="0"
     inkscape:window-maximized="1"
     inkscape:current-layer="layer1" />
  <defs
     id="defs1">
    <linearGradient
       id="linearGradient22"
       inkscape:collect="always">
      <stop
         style="stop-color:#d839e9;stop-opacity:1;"
         offset="0"
         id="stop23" />
      <stop
         style="stop-color:#d839e9;stop-opacity:0;"
         offset="1"
         id="stop24" />
    </linearGradient>
    <linearGradient
       id="linearGradient20"
       inkscape:collect="always">
      <stop
         style="stop-color:#d839e9;stop-opacity:1;"
         offset="0"
         id="stop21" />
      <stop
         style="stop-color:#d839e9;stop-opacity:0;"
         offset="1"
         id="stop22" />
    </linearGradient>
    <linearGradient
       id="linearGradient18"
       inkscape:collect="always">
      <stop
         style="stop-color:#d839e9;stop-opacity:1;"
         offset="0"
         id="stop19" />
      <stop
         style="stop-color:#d839e9;stop-opacity:0;"
         offset="1"
         id="stop20" />
    </linearGradient>
    <linearGradient
       id="linearGradient17"
       inkscape:collect="always">
      <stop
         style="stop-color:#daadf6;stop-opacity:1;"
         offset="0"
         id="stop17" />
      <stop
         style="stop-color:#daadf6;stop-opacity:0;"
         offset="1"
         id="stop18" />
    </linearGradient>
    <radialGradient
       inkscape:collect="always"
       xlink:href="#linearGradient17"
       id="radialGradient18"
       cx="27.983669"
       cy="15.224962"
       fx="27.983669"
       fy="15.224962"
       r="12.312815"
       gradientTransform="matrix(3.8929502,-0.00907984,0.00651557,2.3634146,-59.944134,-21.893386)"
       gradientUnits="userSpaceOnUse" />
    <radialGradient
       inkscape:collect="always"
       xlink:href="#linearGradient18"
       id="radialGradient20"
       cx="29.895884"
       cy="13.525441"
       fx="29.895884"
       fy="13.525441"
       r="3.3114007"
       gradientTransform="matrix(2.256328,0,0,1.0806675,-14.046236,-4.3082149)"
       gradientUnits="userSpaceOnUse" />
    <radialGradient
       inkscape:collect="always"
       xlink:href="#linearGradient20"
       id="radialGradient22"
       cx="33.785126"
       cy="16.728882"
       fx="33.785126"
       fy="16.728882"
       r="2.4252512"
       gradientTransform="matrix(2.256328,0,0,1.3170617,-14.046236,-5.0763551)"
       gradientUnits="userSpaceOnUse" />
    <radialGradient
       inkscape:collect="always"
       xlink:href="#linearGradient22"
       id="radialGradient24"
       cx="29.246063"
       cy="17.498346"
       fx="29.246063"
       fy="17.498346"
       r="1.3144298"
       gradientTransform="matrix(2.256328,0,0,1.6862383,-14.046236,-10.952844)"
       gradientUnits="userSpaceOnUse" />
    <meshgradient
       inkscape:collect="always"
       id="meshgradient28"
       gradientUnits="userSpaceOnUse"
       x="35.147751"
       y="24.142349"
       gradientTransform="matrix(2.256328,0,0,2.0753702,-14.046236,-17.762008)">
      <meshrow
         id="meshrow28">
        <meshpatch
           id="meshpatch28">
          <stop
             path="c 1.05324,0  2.10648,0  3.15972,0"
             style="stop-color:#ffffff;stop-opacity:1"
             id="stop29" />
          <stop
             path="c 0,10.5263  0,21.0525  0,31.5788"
             style="stop-color:#d839e9;stop-opacity:1"
             id="stop30" />
          <stop
             path="c -1.05324,0  -2.10648,0  -3.15972,0"
             style="stop-color:#ffffff;stop-opacity:1"
             id="stop31" />
          <stop
             path="c 0,-10.5263  0,-21.0525  0,-31.5788"
             style="stop-color:#d839e9;stop-opacity:1"
             id="stop32" />
        </meshpatch>
      </meshrow>
    </meshgradient>
    <meshgradient
       inkscape:collect="always"
       id="meshgradient32"
       gradientUnits="userSpaceOnUse"
       x="28.717846"
       y="24.153042"
       gradientTransform="matrix(2.256328,0,0,2.0753702,-14.046236,-17.762008)">
      <meshrow
         id="meshrow32">
        <meshpatch
           id="meshpatch32">
          <stop
             path="c 1.2401,0  2.48021,0  3.72031,0"
             style="stop-color:#ffffff;stop-opacity:1"
             id="stop33" />
          <stop
             path="c 0,9.16321  0,18.3264  0,27.4896"
             style="stop-color:#d839e9;stop-opacity:1"
             id="stop34" />
          <stop
             path="c -1.2401,0  -2.48021,0  -3.72031,0"
             style="stop-color:#ffffff;stop-opacity:1"
             id="stop35" />
          <stop
             path="c 0,-9.16321  0,-18.3264  0,-27.4896"
             style="stop-color:#d839e9;stop-opacity:1"
             id="stop36" />
        </meshpatch>
      </meshrow>
    </meshgradient>
    <meshgradient
       inkscape:collect="always"
       id="meshgradient36"
       gradientUnits="userSpaceOnUse"
       x="20.513338"
       y="24.19314"
       gradientTransform="matrix(2.256328,0,0,2.0753702,-14.046236,-17.762008)">
      <meshrow
         id="meshrow36">
        <meshpatch
           id="meshpatch36">
          <stop
             path="c 1.66045,0  3.3209,0  4.98135,0"
             style="stop-color:#ffffff;stop-opacity:1"
             id="stop37" />
          <stop
             path="c 0,8.34905  0,16.6981  0,25.0472"
             style="stop-color:#d839e9;stop-opacity:1"
             id="stop38" />
          <stop
             path="c -1.66045,0  -3.3209,0  -4.98135,0"
             style="stop-color:#ffffff;stop-opacity:1"
             id="stop39" />
          <stop
             path="c 0,-8.34905  0,-16.6981  0,-25.0472"
             style="stop-color:#d839e9;stop-opacity:1"
             id="stop40" />
        </meshpatch>
      </meshrow>
    </meshgradient>
    <meshgradient
       inkscape:collect="always"
       id="meshgradient40"
       gradientUnits="userSpaceOnUse"
       x="15.079579"
       y="24.618454"
       gradientTransform="matrix(2.256328,0,0,2.0753702,-14.046236,-17.762008)">
      <meshrow
         id="meshrow40">
        <meshpatch
           id="meshpatch40">
          <stop
             path="c 1.8026,0  3.60521,0  5.40781,0"
             style="stop-color:#ffffff;stop-opacity:1"
             id="stop41" />
          <stop
             path="c 0,10.2063  0,20.4126  0,30.619"
             style="stop-color:#d839e9;stop-opacity:1"
             id="stop42" />
          <stop
             path="c -1.8026,0  -3.60521,0  -5.40781,0"
             style="stop-color:#ffffff;stop-opacity:1"
             id="stop43" />
          <stop
             path="c 0,-10.2063  0,-20.4126  0,-30.619"
             style="stop-color:#d839e9;stop-opacity:1"
             id="stop44" />
        </meshpatch>
      </meshrow>
    </meshgradient>
    <meshgradient
       inkscape:collect="always"
       id="meshgradient44"
       gradientUnits="userSpaceOnUse"
       x="15.492131"
       y="20.446829"
       gradientTransform="matrix(2.256328,0,0,2.0753702,-14.046236,-17.762008)">
      <meshrow
         id="meshrow634">
        <meshpatch
           id="meshpatch634">
          <stop
             path="c 0.291472,-6.39786  4.91766,-1.01997  6.79369,0"
             style="stop-color:#ffffff;stop-opacity:1"
             id="stop634" />
          <stop
             path="c 2.26017,-5.27024  5.14112,2.4336  3.26515,3.45358"
             style="stop-color:#daadf6;stop-opacity:1"
             id="stop635" />
          <stop
             path="c -1.87603,1.01997  -12.072,1.64426  -13.948,0.624235"
             style="stop-color:#ffffff;stop-opacity:1"
             id="stop636" />
          <stop
             path="c -1.87649,-1.01997  2.01287,-3.05783  3.88913,-4.07782"
             style="stop-color:#daadf6;stop-opacity:1"
             id="stop637" />
        </meshpatch>
      </meshrow>
    </meshgradient>
    <meshgradient
       inkscape:collect="always"
       id="meshgradient48"
       gradientUnits="userSpaceOnUse"
       x="22.994555"
       y="20.623983"
       gradientTransform="matrix(2.256328,0,0,2.0753702,-14.046236,-17.762008)">
      <meshrow
         id="meshrow936">
        <meshpatch
           id="meshpatch936">
          <stop
             path="c 2.60458,-1.01997  6.82743,-1.01997  9.43201,0"
             style="stop-color:#ffffff;stop-opacity:1"
             id="stop936" />
          <stop
             path="c 2.60458,1.01997  5.05341,2.9618  2.44886,3.98176"
             style="stop-color:#daadf6;stop-opacity:1"
             id="stop937" />
          <stop
             path="c -2.60458,1.02001  -9.27634,5.58164  -11.8809,4.56164"
             style="stop-color:#ffffff;stop-opacity:1"
             id="stop938" />
          <stop
             path="c -2.60445,-1.01997  -2.60445,-7.52339  5.8e-05,-8.5434"
             style="stop-color:#daadf6;stop-opacity:1"
             id="stop939" />
        </meshpatch>
      </meshrow>
    </meshgradient>
    <meshgradient
       inkscape:collect="always"
       id="meshgradient52"
       gradientUnits="userSpaceOnUse"
       x="33.402832"
       y="20.344147"
       gradientTransform="matrix(2.256328,0,0,2.0753702,-14.046236,-17.762008)">
      <meshrow
         id="meshrow1039">
        <meshpatch
           id="meshpatch1039">
          <stop
             path="c 1.87603,-1.01997  4.91766,-1.01997  6.79369,0"
             style="stop-color:#ffffff;stop-opacity:1"
             id="stop1039" />
          <stop
             path="c 1.87603,1.01997  1.87603,2.67368  0,3.69366"
             style="stop-color:#daadf6;stop-opacity:1"
             id="stop1040" />
          <stop
             path="c -1.87603,1.01997  -5.68595,3.80495  -7.56196,2.78498"
             style="stop-color:#ffffff;stop-opacity:1"
             id="stop1041" />
          <stop
             path="c -1.87603,-1.01997  -1.10774,-5.45866  0.76827,-6.47864"
             style="stop-color:#daadf6;stop-opacity:1"
             id="stop1042" />
        </meshpatch>
      </meshrow>
    </meshgradient>
  </defs>
  <g
     inkscape:label="Calque 1"
     inkscape:groupmode="layer"
     id="layer1">
    <path
       style="fill:url(#radialGradient18);stroke-width:0.572546"
       d="m 21.31235,25.795344 c 0,0 25.256129,-53.430353 55.563492,-0.580764"
       id="path1" />
    <path
       style="fill:url(#meshgradient28);fill-opacity:1;stroke-width:0.629095"
       d="m 66.260584,32.342306 c 0.626944,2.938679 2.604331,5.088314 3.49064,7.885546 0.940833,2.969299 1.389995,8.019466 0.585263,11.046768 -0.218029,0.820215 -0.502902,1.638227 -0.773378,2.437988 -0.19391,0.573379 -0.318033,1.275989 -0.543456,1.831412 -0.446087,1.09915 -1.037283,2.027913 -1.369081,3.196212 -0.615839,2.168415 -1.092402,4.237413 -1.35864,6.497411 -0.3984,3.381898 -0.857638,6.208192 -0.470293,9.518656 0.736842,6.29749 1.349761,12.319297 0.0836,18.594031 -0.269677,1.336441 -1.208216,2.990723 -0.167224,4.129414 1.597919,1.747857 3.351179,-2.7103 3.772825,-4.129414 0.585392,-1.970236 0.849105,-4.090745 0.951042,-6.147462 0.04729,-0.954033 0.198578,-1.902458 0.198578,-2.85793 0,-1.060588 -0.1377,-1.550003 -0.219472,-2.589636 -0.154715,-1.967205 -0.03225,-1.682457 -0.282179,-3.662817 -0.180867,-1.432848 -0.465708,-2.625749 -0.710671,-4.001095 -0.351075,-1.971172 -0.358616,-6.747715 -0.09407,-8.620449 0.26681,-1.888667 0.800021,-3.730814 1.107809,-5.610868 0.370729,-2.264469 0.537659,-4.572328 1.013755,-6.812367 0.0706,-0.332187 0.23689,-0.629909 0.355333,-0.944864 0.09407,-0.458832 0.196819,-0.915555 0.282176,-1.376475 0.201581,-1.08845 0.08519,-2.172065 0.177663,-3.266202 0.0706,-0.835204 0.141197,-1.736748 0.06271,-2.577967 -0.02329,-0.249605 -0.142559,-0.477452 -0.188133,-0.723234 -0.246883,-1.331877 -0.687519,-2.225081 -1.013748,-3.499503 -0.01429,-0.05608 -0.119811,-0.892578 -0.146325,-1.026524 -0.249193,-1.258964 -0.656482,-2.242278 -1.275025,-3.277865 -0.184161,-0.308318 -0.448606,-0.732401 -0.574809,-1.073183 -0.152915,-0.412938 -0.201874,-0.847045 -0.386687,-1.248156 -0.139482,-0.302729 -0.434369,-0.554979 -0.522555,-0.874878 -0.03396,-0.123259 -0.130437,-0.281354 -0.135851,-0.408273 -0.0047,-0.116512 0.101165,-0.31858 0,-0.349953 -0.408989,-0.126802 -0.04454,0.184045 -0.261271,-0.02331"
       id="path7" />
    <path
       style="fill:url(#meshgradient40);fill-opacity:1;stroke-width:0.641698"
       d="m 28.281943,33.748695 c 0.143368,0.592522 -0.111937,1.292095 0,1.893377 0.482121,2.589528 0.886354,5.41518 0.512101,8.095395 -0.199166,1.426265 -0.689464,2.849351 -1.118261,4.199406 -0.391489,1.232597 -0.692932,2.474263 -1.233223,3.641106 -0.464925,1.004079 -1.072902,1.937294 -1.525851,2.937159 -0.729716,1.610831 -1.191336,3.424129 -1.755772,5.109689 -0.360334,1.076041 -0.760681,2.173731 -1.191421,3.216311 -0.246661,0.597034 -0.565864,1.158689 -0.752474,1.78414 -0.335177,1.123408 -1.031141,4.034604 -1.201869,5.595168 -0.185763,1.698071 0.373626,4.542858 0.689769,6.129191 0.124323,0.623809 0.551516,1.213429 0.742023,1.820553 0.556681,1.774085 0.770292,3.836079 0.846535,5.728679 0.04003,0.993476 0.01399,2.145771 -0.18811,3.119212 -0.574781,2.768182 -2.125474,5.635117 -0.742022,8.423097 0.491762,0.991017 1.000099,1.296854 1.93344,1.420031 1.418747,0.187241 2.287208,-1.428241 2.602309,-2.779378 0.142443,-0.610772 0.329949,-1.207674 0.428492,-1.832693 0.387897,-2.460273 0.135876,-5.097299 0.03136,-7.573503 -0.08454,-2.002632 -0.134542,-3.835967 -0.459843,-5.862177 -0.11408,-0.710657 -0.418547,-1.367208 -0.543455,-2.075433 -0.11681,-0.662353 -0.04323,-1.347274 -0.0627,-2.014745 -0.02387,-0.81799 -0.30208,-1.653101 -0.40759,-2.427403 -0.07875,-0.57781 -0.108282,-1.163683 -0.135854,-1.747734 -0.06117,-1.295138 0.06615,-1.546623 0.18811,-3.022116 0.03705,-0.448185 -0.0086,-0.909784 0.0836,-1.347208 0.233474,-1.107151 0.746408,-2.109883 1.180967,-3.11922 0.45766,-1.062979 0.757452,-2.218674 1.201869,-3.289129 0.401496,-0.967066 0.97141,-1.881679 1.337734,-2.864335 0.174324,-0.467649 0.285446,-0.964559 0.459847,-1.432171 0.404868,-1.085569 1.08565,-2.068128 1.504948,-3.155628 0.303494,-0.787151 0.442481,-1.706161 0.637514,-2.536638 0.734454,-3.127443 1.060181,-5.827483 0.668866,-9.07849 -0.207199,-1.721296 -0.356288,-3.450935 -0.616612,-5.170371 -0.04411,-0.291351 -0.170691,-0.818891 -0.09407,-1.068058 0.05925,-0.192656 -0.230022,-0.631697 -0.261276,-0.813181 -8.35e-4,-0.005 -0.256788,-0.140439 -0.271728,-0.157769 -0.187455,-0.217708 -0.202144,-0.255613 -0.470295,0.121389"
       id="path4" />
    <path
       style="fill:url(#meshgradient36);fill-opacity:1;stroke-width:0.69843"
       d="m 40.670349,32.447713 c -0.334432,4.902882 -0.112278,9.937864 -1.003299,14.708652 -0.555604,2.974852 -2.307836,5.279631 -3.250271,8.066038 -0.653162,1.931147 -5.18996,13.991595 -3.971393,19.122691 0.671217,2.826334 1.849349,5.384802 2.92629,7.965388 0.202121,0.484326 1.425037,1.804061 1.828931,1.998533 0.924881,0.445341 1.995686,-0.404969 2.466443,-1.495306 0.372121,-0.861875 -0.199977,-6.932126 -0.240373,-7.620312 -0.256991,-4.377836 -0.221098,-8.582479 0.292628,-12.911414 0.382493,-3.223043 1.028802,-6.513854 1.943894,-9.532586 0.704056,-2.322566 0.198286,0.424254 1.034653,-2.631163 0.808406,-2.953314 0.933125,-5.734868 0.627061,-8.828071 -0.235152,-2.376562 -0.04824,-0.05892 -0.292628,-1.595957 -0.219743,-1.381967 -0.249134,-2.791182 -0.114952,-4.183985 0.04645,-0.482291 0.075,-1.10575 0.198581,-1.567197 0.07448,-0.278101 0.25938,-0.56643 0.323981,-0.86268 0.01311,-0.05969 0.02791,-0.23613 0,-0.186908 -0.116633,0.205588 -0.222948,0.421756 -0.334434,0.63263"
       id="path5" />
    <path
       style="fill:url(#meshgradient32);fill-opacity:1;stroke-width:0.653795"
       d="m 53.760702,33.750383 c 0.648257,1.891649 1.376299,3.955207 1.557211,6.022309 0.404124,4.617646 0.172632,9.329305 -0.564361,13.884069 -0.08849,0.546892 -0.284817,1.064107 -0.365788,1.612673 -0.348215,2.359292 -0.375019,4.77821 -0.752471,7.131021 -0.262919,1.638892 -0.641976,3.248177 -0.992848,4.863202 -0.338224,1.556823 -0.893433,3.03648 -1.254125,4.58603 -0.139784,0.600479 -0.169382,1.230863 -0.282178,1.839451 -0.09987,0.538799 -0.363054,1.048196 -0.355335,1.600069 0.02076,1.490657 0.140323,7.542457 0.909243,10.343755 0.256697,0.935198 0.96135,3.705235 1.797575,3.779702 0.393635,0.03507 0.879641,-0.237928 1.045101,-0.667754 0.727674,-1.890202 1.018239,-7.634491 1.118264,-9.247645 0.04597,-0.741712 -0.03253,-1.495078 0.0627,-2.230021 1.498073,-11.561411 0.576247,-2.860926 1.693067,-9.864994 0.325493,-2.041312 0.322265,-2.821555 0.543454,-4.737214 0.189373,-1.640153 0.478802,-3.042509 0.647964,-4.749815 0.0937,-0.945664 -0.04494,-1.087524 0,-1.864649 0.0252,-0.435412 0.126015,-0.704318 0.198579,-1.146511 0.217465,-1.325358 0.357081,-2.68068 0.376238,-4.03167 0.02098,-1.482228 -0.137632,-2.948474 -0.209026,-4.422241 -0.102661,-2.119286 0.04782,-0.239606 -0.01042,-1.82685 -0.03874,-1.055724 -0.03993,-0.36329 -0.188111,-1.411087 -0.181905,-1.286513 -0.265562,-2.616841 -0.512101,-3.893086 -0.389396,-2.015765 -0.982395,-4.86108 -0.982395,-6.954631"
       id="path6" />
    <ellipse
       style="fill:url(#meshgradient44);fill-opacity:1;stroke-width:0.572546"
       id="path2"
       cx="28.573484"
       cy="28.505581"
       rx="10.839089"
       ry="5.4204707" />
    <ellipse
       style="fill:url(#meshgradient52);fill-opacity:1;stroke-width:0.572546"
       id="path2-7"
       cx="68.985901"
       cy="28.292482"
       rx="10.839089"
       ry="5.4204707" />
    <ellipse
       style="fill:url(#meshgradient48);fill-opacity:1;stroke:none;stroke-width:0.674622"
       id="path2-5"
       cx="48.477879"
       cy="28.873245"
       rx="15.048443"
       ry="5.4204707" />
    <ellipse
       style="fill:url(#radialGradient20);stroke-width:0.621731"
       id="path3"
       cx="53.408684"
       cy="10.30829"
       rx="7.4716058"
       ry="3.6781764" />
    <ellipse
       style="fill:url(#radialGradient22);stroke-width:0.495838"
       id="path3-9"
       cx="62.18409"
       cy="16.956614"
       rx="5.4721618"
       ry="3.1942058" />
    <ellipse
       style="fill:url(#radialGradient24);stroke-width:0.572546"
       id="path8"
       cx="51.942474"
       cy="18.553537"
       rx="2.9657845"
       ry="2.2164419" />
    <path
       style="fill:#f2f2f2;fill-opacity:1;stroke-width:0.264583"
       d="m 65.627698,9.2897745 c 0.375598,0.082281 0.211397,0.047231 0.492348,0.1063363"
       id="path10" />
    <path
       style="fill:#f2f2f2;fill-opacity:1;stroke-width:0.572546"
       d="m 23.905286,24.774716 c 0.507003,-0.211661 0.9912,0.06791 1.496498,0.06791 0.473578,0 1.078802,-0.154019 1.551584,-0.02547 0.208597,0.05673 0.425731,0.187655 0.633489,0.229176 0.296506,0.05927 0.862064,0.06767 1.193525,0.144305 0.120601,0.02787 0.0687,0.0895 0.174437,0.13581 0.235461,0.103128 0.552358,0.103769 0.807925,0.19523 0.477338,0.170825 0.879163,0.384847 1.377145,0.509278 0.955251,0.238687 2.015589,0.244036 2.974637,0.492301 0.377528,0.09773 0.504666,0.44977 0.881374,0.568693 0.495877,0.156551 0.997093,0.169765 1.514859,0.169765 0.471758,0 1.42479,-0.03185 1.827015,-0.229175 0.347821,-0.170637 0.510424,-0.359203 0.908917,-0.432884 0.884505,-0.163561 1.781834,-0.266901 2.653299,-0.483816 0.201015,-0.05004 0.240782,-0.146693 0.477412,-0.220686 0.430363,-0.134592 1.178627,-0.199692 1.579126,-0.271614 0.624149,-0.112088 0.276394,-0.02013 0.954822,-0.07639 0.319067,-0.02648 0.604838,-0.197452 0.927281,-0.229176 0.319555,-0.03145 0.635921,0.08833 0.954819,0.06791 1.768849,-0.113339 3.281528,-0.239128 5.040354,0 0.334259,0.04546 0.675318,0.01218 1.009906,0.05092 0.270877,0.03129 0.557155,0.156359 0.83547,0.220687 0.22049,0.05096 0.343172,-0.01411 0.504955,0.118836 0.275701,0.226569 2.304506,0.725383 2.405415,0.891236 0.03534,0.05809 0.07304,0.437055 0,0.492301 -0.0437,0.03307 -1.054093,-0.103048 -1.175167,-0.152785 -0.219654,-0.09026 0.0074,-0.02795 -0.367238,-0.25464 -0.47116,-0.285113 -1.136251,-0.383535 -1.551586,-0.687524 -0.336874,-0.246561 -2.540411,-0.0015 -2.956273,0.02547 -0.497075,0.03225 -0.991769,-0.0866 -1.468957,-0.152785 -0.826063,-0.114556 -1.837728,0.0048 -2.634938,0.178253 -0.280997,0.06112 -0.581184,0.202245 -0.872193,0.212199 -0.379234,0.01314 -0.780957,-0.04166 -1.175165,-0.02547 -0.200633,0.0083 -1.572426,0.274006 -1.661756,0.331029 -0.276505,0.17651 -0.514762,0.372123 -0.807925,0.53474 -0.860044,0.477076 -1.874549,0.686213 -2.781833,1.060996 -0.264955,0.10946 -0.353251,0.300488 -0.725297,0.364983 -0.233087,0.04041 -0.55479,-0.02547 -0.798748,-0.02547 -0.961713,0 -2.088735,-0.05639 -2.947091,-0.500789 -0.384699,-0.199173 -0.760043,-0.43765 -1.156803,-0.628108 -0.395683,-0.189939 -0.931725,-0.166404 -1.312878,-0.373471 -0.187637,-0.101942 -0.329116,-0.263548 -0.504953,-0.381958 -0.365085,-0.245864 -0.887468,-0.362216 -1.303699,-0.517776 -0.258909,-0.09675 -0.477987,-0.28311 -0.743659,-0.364983 -0.542211,-0.167088 -1.153638,-0.349331 -1.726023,-0.432885 -0.265847,-0.03881 -0.568885,0.0039 -0.844649,-0.02547 -0.65814,-0.07021 -1.359208,-0.140689 -2.010634,-0.271614 -0.180078,-0.03619 -0.426187,0.06187 -0.596763,-0.01702 -0.18987,-0.08777 -0.373359,-0.186742 -0.560039,-0.280107 z"
       id="path12" />
    <path
       style="fill:#f2f2f2;fill-opacity:1;stroke-width:0.572546"
       d="m 62.355201,26.87124 c 0.992814,-0.153474 1.675033,-0.81231 2.515589,-1.230753 0.592676,-0.295048 1.39683,-0.331277 2.038173,-0.449863 0.888406,-0.164266 1.767392,-0.365998 2.671665,-0.415908 0.578462,-0.03195 2.038376,-0.03116 2.598218,0.13581 0.305317,0.09104 0.685353,0.25464 1.009903,0.25464 0.01849,0 -0.04106,-0.01106 -0.0551,0 -0.100072,0.07828 -0.08047,0.111238 -0.192803,0.178254 -0.206883,0.123404 -0.543158,0.203717 -0.789565,0.203717 -0.460247,0 -0.908834,-0.121914 -1.367965,-0.152785 -0.365708,-0.02459 -0.743877,0 -1.110896,0 -0.742719,0 -1.452332,0.03648 -2.185073,0.08489 -0.442708,0.02924 -0.91139,-0.0069 -1.34042,0.144305 -0.687329,0.242075 -1.269261,0.700251 -1.94637,0.950649 -0.26795,0.09911 -0.738738,0.237757 -1.037448,0.152785 -0.130756,-0.03719 0.0913,-0.113194 -0.211168,-0.04244 -0.203635,0.04764 -0.397839,0.124494 -0.596759,0.186743 z"
       id="path13" />
    <path
       style="fill:#f2f2f2;fill-opacity:1;stroke-width:0.572546"
       d="m 24.338097,22.745858 c 0.553741,-0.628598 0.944541,-1.324925 1.356285,-2.036601 0.101084,-0.174724 0.302968,-0.330121 0.380103,-0.511147 0.06584,-0.154515 0.351895,-0.860261 0.457857,-0.966384 0.08861,-0.08875 0.27506,-0.213862 0.310994,-0.343429 0.195849,-0.706181 0.606887,-1.380623 1.019373,-2.004651 0.280606,-0.424516 0.71454,-0.634073 1.036649,-1.00632 0.03958,-0.04571 -0.05776,-0.169164 0.05183,-0.191681 0.03734,-0.0077 0.212231,-0.01555 0.241886,0.01603 0.346583,0.369717 -0.113133,0.932665 -0.293718,1.285853 -0.4709,0.920945 -1.104136,1.119873 -1.667279,1.900825 -0.341349,0.473375 -0.570838,1.012733 -0.786125,1.541426 -0.08967,0.22022 -0.121143,0.499114 -0.276441,0.686854 -0.163291,0.197431 -0.268896,0.255153 -0.475131,0.391348 -0.30339,0.200356 -0.467683,0.549075 -0.742934,0.766718 -0.202009,0.159725 -0.408901,0.314143 -0.613351,0.471215 z"
       id="path15" />
    <path
       style="fill:#f2f2f2;fill-opacity:1;stroke-width:0.572546"
       d="m 29.417684,15.102619 c 0.307533,-0.217349 0.434253,-0.348571 0.587435,-0.62296 0.281294,-0.503868 0.42366,-1.069181 0.734295,-1.557399 0.08513,-0.13382 0.24096,-0.203013 0.328271,-0.327454 0.140073,-0.19965 0.282372,-0.526517 0.48377,-0.686852 0.434018,-0.345526 0.921925,-0.55913 1.243981,-1.022292 0.142646,-0.20515 0.251289,-0.540821 0.406023,-0.726789 0.285497,-0.3431308 1.192662,-1.3178348 1.641362,-1.3497456 0.230256,-0.016395 -0.100158,0.5354601 -0.138223,0.5910136 -0.22708,0.3314821 -0.50322,0.5978581 -0.760211,0.910479 -0.327206,0.398038 -0.525235,0.846731 -0.932984,1.198 -0.557665,0.480419 -1.232826,0.926013 -1.693196,1.493507 -0.700651,0.863681 -0.769205,1.60325 -1.900525,2.100492 z"
       id="path16" />
    <path
       style="fill:#f2f2f2;fill-opacity:1;stroke-width:0.572546"
       d="m 36.112716,8.3139545 c 0.259491,-0.4577895 0.625028,-0.8433662 0.907069,-1.2858539 0.339372,-0.532432 1.653202,-1.3904192 2.306546,-1.5414252 0.167459,-0.038706 0.33892,-0.037481 0.492411,-0.1118202 0.04316,-0.0209 0.54553,-0.2149566 0.587435,-0.12778 0.194991,0.4056249 -1.469118,1.0288938 -1.788222,1.2459195 -0.480268,0.3266321 -1.938524,1.8836745 -1.986913,1.8848532 -0.174256,0.00415 -0.345549,-0.042586 -0.518326,-0.063901 z"
       id="path17" />
  </g>
  <script
     id="mesh_polyfill"
     type="text/javascript">
!function(){const t=&quot;http://www.w3.org/2000/svg&quot;,e=&quot;http://www.w3.org/1999/xlink&quot;,s=&quot;http://www.w3.org/1999/xhtml&quot;,r=2;if(document.createElementNS(t,&quot;meshgradient&quot;).x)return;const n=(t,e,s,r)=&gt;{let n=new x(.5*(e.x+s.x),.5*(e.y+s.y)),o=new x(.5*(t.x+e.x),.5*(t.y+e.y)),i=new x(.5*(s.x+r.x),.5*(s.y+r.y)),a=new x(.5*(n.x+o.x),.5*(n.y+o.y)),h=new x(.5*(n.x+i.x),.5*(n.y+i.y)),l=new x(.5*(a.x+h.x),.5*(a.y+h.y));return[[t,o,a,l],[l,h,i,r]]},o=t=&gt;{let e=t[0].distSquared(t[1]),s=t[2].distSquared(t[3]),r=.25*t[0].distSquared(t[2]),n=.25*t[1].distSquared(t[3]),o=e&gt;s?e:s,i=r&gt;n?r:n;return 18*(o&gt;i?o:i)},i=(t,e)=&gt;Math.sqrt(t.distSquared(e)),a=(t,e)=&gt;t.scale(2/3).add(e.scale(1/3)),h=t=&gt;{let e,s,r,n,o,i,a,h=new g;return t.match(/(\w+\(\s*[^)]+\))+/g).forEach(t=&gt;{let l=t.match(/[\w.-]+/g),d=l.shift();switch(d){case&quot;translate&quot;:2===l.length?e=new g(1,0,0,1,l[0],l[1]):(console.error(&quot;mesh.js: translate does not have 2 arguments!&quot;),e=new g(1,0,0,1,0,0)),h=h.append(e);break;case&quot;scale&quot;:1===l.length?s=new g(l[0],0,0,l[0],0,0):2===l.length?s=new g(l[0],0,0,l[1],0,0):(console.error(&quot;mesh.js: scale does not have 1 or 2 arguments!&quot;),s=new g(1,0,0,1,0,0)),h=h.append(s);break;case&quot;rotate&quot;:if(3===l.length&amp;&amp;(e=new g(1,0,0,1,l[1],l[2]),h=h.append(e)),l[0]){r=l[0]*Math.PI/180;let t=Math.cos(r),e=Math.sin(r);Math.abs(t)&lt;1e-16&amp;&amp;(t=0),Math.abs(e)&lt;1e-16&amp;&amp;(e=0),a=new g(t,e,-e,t,0,0),h=h.append(a)}else console.error(&quot;math.js: No argument to rotate transform!&quot;);3===l.length&amp;&amp;(e=new g(1,0,0,1,-l[1],-l[2]),h=h.append(e));break;case&quot;skewX&quot;:l[0]?(r=l[0]*Math.PI/180,n=Math.tan(r),o=new g(1,0,n,1,0,0),h=h.append(o)):console.error(&quot;math.js: No argument to skewX transform!&quot;);break;case&quot;skewY&quot;:l[0]?(r=l[0]*Math.PI/180,n=Math.tan(r),i=new g(1,n,0,1,0,0),h=h.append(i)):console.error(&quot;math.js: No argument to skewY transform!&quot;);break;case&quot;matrix&quot;:6===l.length?h=h.append(new g(...l)):console.error(&quot;math.js: Incorrect number of arguments for matrix!&quot;);break;default:console.error(&quot;mesh.js: Unhandled transform type: &quot;+d)}}),h},l=t=&gt;{let e=[],s=t.split(/[ ,]+/);for(let t=0,r=s.length-1;t&lt;r;t+=2)e.push(new x(parseFloat(s[t]),parseFloat(s[t+1])));return e},d=(t,e)=&gt;{for(let s in e)t.setAttribute(s,e[s])},c=(t,e,s,r,n)=&gt;{let o,i,a=[0,0,0,0];for(let h=0;h&lt;3;++h)e[h]&lt;t[h]&amp;&amp;e[h]&lt;s[h]||t[h]&lt;e[h]&amp;&amp;s[h]&lt;e[h]?a[h]=0:(a[h]=.5*((e[h]-t[h])/r+(s[h]-e[h])/n),o=Math.abs(3*(e[h]-t[h])/r),i=Math.abs(3*(s[h]-e[h])/n),a[h]&gt;o?a[h]=o:a[h]&gt;i&amp;&amp;(a[h]=i));return a},u=[[1,0,0,0,0,0,0,0,0,0,0,0,0,0,0,0],[0,0,0,0,1,0,0,0,0,0,0,0,0,0,0,0],[-3,3,0,0,-2,-1,0,0,0,0,0,0,0,0,0,0],[2,-2,0,0,1,1,0,0,0,0,0,0,0,0,0,0],[0,0,0,0,0,0,0,0,1,0,0,0,0,0,0,0],[0,0,0,0,0,0,0,0,0,0,0,0,1,0,0,0],[0,0,0,0,0,0,0,0,-3,3,0,0,-2,-1,0,0],[0,0,0,0,0,0,0,0,2,-2,0,0,1,1,0,0],[-3,0,3,0,0,0,0,0,-2,0,-1,0,0,0,0,0],[0,0,0,0,-3,0,3,0,0,0,0,0,-2,0,-1,0],[9,-9,-9,9,6,3,-6,-3,6,-6,3,-3,4,2,2,1],[-6,6,6,-6,-3,-3,3,3,-4,4,-2,2,-2,-2,-1,-1],[2,0,-2,0,0,0,0,0,1,0,1,0,0,0,0,0],[0,0,0,0,2,0,-2,0,0,0,0,0,1,0,1,0],[-6,6,6,-6,-4,-2,4,2,-3,3,-3,3,-2,-1,-2,-1],[4,-4,-4,4,2,2,-2,-2,2,-2,2,-2,1,1,1,1]],f=t=&gt;{let e=[];for(let s=0;s&lt;16;++s){e[s]=0;for(let r=0;r&lt;16;++r)e[s]+=u[s][r]*t[r]}return e},p=(t,e,s)=&gt;{const r=e*e,n=s*s,o=e*e*e,i=s*s*s;return t[0]+t[1]*e+t[2]*r+t[3]*o+t[4]*s+t[5]*s*e+t[6]*s*r+t[7]*s*o+t[8]*n+t[9]*n*e+t[10]*n*r+t[11]*n*o+t[12]*i+t[13]*i*e+t[14]*i*r+t[15]*i*o},y=t=&gt;{let e=[],s=[],r=[];for(let s=0;s&lt;4;++s)e[s]=[],e[s][0]=n(t[0][s],t[1][s],t[2][s],t[3][s]),e[s][1]=[],e[s][1].push(...n(...e[s][0][0])),e[s][1].push(...n(...e[s][0][1])),e[s][2]=[],e[s][2].push(...n(...e[s][1][0])),e[s][2].push(...n(...e[s][1][1])),e[s][2].push(...n(...e[s][1][2])),e[s][2].push(...n(...e[s][1][3]));for(let t=0;t&lt;8;++t){s[t]=[];for(let r=0;r&lt;4;++r)s[t][r]=[],s[t][r][0]=n(e[0][2][t][r],e[1][2][t][r],e[2][2][t][r],e[3][2][t][r]),s[t][r][1]=[],s[t][r][1].push(...n(...s[t][r][0][0])),s[t][r][1].push(...n(...s[t][r][0][1])),s[t][r][2]=[],s[t][r][2].push(...n(...s[t][r][1][0])),s[t][r][2].push(...n(...s[t][r][1][1])),s[t][r][2].push(...n(...s[t][r][1][2])),s[t][r][2].push(...n(...s[t][r][1][3]))}for(let t=0;t&lt;8;++t){r[t]=[];for(let e=0;e&lt;8;++e)r[t][e]=[],r[t][e][0]=s[t][0][2][e],r[t][e][1]=s[t][1][2][e],r[t][e][2]=s[t][2][2][e],r[t][e][3]=s[t][3][2][e]}return r};class x{constructor(t,e){this.x=t||0,this.y=e||0}toString(){return`(x=${this.x}, y=${this.y})`}clone(){return new x(this.x,this.y)}add(t){return new x(this.x+t.x,this.y+t.y)}scale(t){return void 0===t.x?new x(this.x*t,this.y*t):new x(this.x*t.x,this.y*t.y)}distSquared(t){let e=this.x-t.x,s=this.y-t.y;return e*e+s*s}transform(t){let e=this.x*t.a+this.y*t.c+t.e,s=this.x*t.b+this.y*t.d+t.f;return new x(e,s)}}class g{constructor(t,e,s,r,n,o){void 0===t?(this.a=1,this.b=0,this.c=0,this.d=1,this.e=0,this.f=0):(this.a=t,this.b=e,this.c=s,this.d=r,this.e=n,this.f=o)}toString(){return`affine: ${this.a} ${this.c} ${this.e} \n       ${this.b} ${this.d} ${this.f}`}append(t){t instanceof g||console.error(&quot;mesh.js: argument to Affine.append is not affine!&quot;);let e=this.a*t.a+this.c*t.b,s=this.b*t.a+this.d*t.b,r=this.a*t.c+this.c*t.d,n=this.b*t.c+this.d*t.d,o=this.a*t.e+this.c*t.f+this.e,i=this.b*t.e+this.d*t.f+this.f;return new g(e,s,r,n,o,i)}}class w{constructor(t,e){this.nodes=t,this.colors=e}paintCurve(t,e){if(o(this.nodes)&gt;r){const s=n(...this.nodes);let r=[[],[]],o=[[],[]];for(let t=0;t&lt;4;++t)r[0][t]=this.colors[0][t],r[1][t]=(this.colors[0][t]+this.colors[1][t])/2,o[0][t]=r[1][t],o[1][t]=this.colors[1][t];let i=new w(s[0],r),a=new w(s[1],o);i.paintCurve(t,e),a.paintCurve(t,e)}else{let s=Math.round(this.nodes[0].x);if(s&gt;=0&amp;&amp;s&lt;e){let r=4*(~~this.nodes[0].y*e+s);t[r]=Math.round(this.colors[0][0]),t[r+1]=Math.round(this.colors[0][1]),t[r+2]=Math.round(this.colors[0][2]),t[r+3]=Math.round(this.colors[0][3])}}}}class m{constructor(t,e){this.nodes=t,this.colors=e}split(){let t=[[],[],[],[]],e=[[],[],[],[]],s=[[[],[]],[[],[]]],r=[[[],[]],[[],[]]];for(let s=0;s&lt;4;++s){const r=n(this.nodes[0][s],this.nodes[1][s],this.nodes[2][s],this.nodes[3][s]);t[0][s]=r[0][0],t[1][s]=r[0][1],t[2][s]=r[0][2],t[3][s]=r[0][3],e[0][s]=r[1][0],e[1][s]=r[1][1],e[2][s]=r[1][2],e[3][s]=r[1][3]}for(let t=0;t&lt;4;++t)s[0][0][t]=this.colors[0][0][t],s[0][1][t]=this.colors[0][1][t],s[1][0][t]=(this.colors[0][0][t]+this.colors[1][0][t])/2,s[1][1][t]=(this.colors[0][1][t]+this.colors[1][1][t])/2,r[0][0][t]=s[1][0][t],r[0][1][t]=s[1][1][t],r[1][0][t]=this.colors[1][0][t],r[1][1][t]=this.colors[1][1][t];return[new m(t,s),new m(e,r)]}paint(t,e){let s,n=!1;for(let t=0;t&lt;4;++t)if((s=o([this.nodes[0][t],this.nodes[1][t],this.nodes[2][t],this.nodes[3][t]]))&gt;r){n=!0;break}if(n){let s=this.split();s[0].paint(t,e),s[1].paint(t,e)}else{new w([...this.nodes[0]],[...this.colors[0]]).paintCurve(t,e)}}}class b{constructor(t){this.readMesh(t),this.type=t.getAttribute(&quot;type&quot;)||&quot;bilinear&quot;}readMesh(t){let e=[[]],s=[[]],r=Number(t.getAttribute(&quot;x&quot;)),n=Number(t.getAttribute(&quot;y&quot;));e[0][0]=new x(r,n);let o=t.children;for(let t=0,r=o.length;t&lt;r;++t){e[3*t+1]=[],e[3*t+2]=[],e[3*t+3]=[],s[t+1]=[];let r=o[t].children;for(let n=0,o=r.length;n&lt;o;++n){let o=r[n].children;for(let r=0,i=o.length;r&lt;i;++r){let i=r;0!==t&amp;&amp;++i;let h,d=o[r].getAttribute(&quot;path&quot;),c=&quot;l&quot;;null!=d&amp;&amp;(c=(h=d.match(/\s*([lLcC])\s*(.*)/))[1]);let u=l(h[2]);switch(c){case&quot;l&quot;:0===i?(e[3*t][3*n+3]=u[0].add(e[3*t][3*n]),e[3*t][3*n+1]=a(e[3*t][3*n],e[3*t][3*n+3]),e[3*t][3*n+2]=a(e[3*t][3*n+3],e[3*t][3*n])):1===i?(e[3*t+3][3*n+3]=u[0].add(e[3*t][3*n+3]),e[3*t+1][3*n+3]=a(e[3*t][3*n+3],e[3*t+3][3*n+3]),e[3*t+2][3*n+3]=a(e[3*t+3][3*n+3],e[3*t][3*n+3])):2===i?(0===n&amp;&amp;(e[3*t+3][3*n+0]=u[0].add(e[3*t+3][3*n+3])),e[3*t+3][3*n+1]=a(e[3*t+3][3*n],e[3*t+3][3*n+3]),e[3*t+3][3*n+2]=a(e[3*t+3][3*n+3],e[3*t+3][3*n])):(e[3*t+1][3*n]=a(e[3*t][3*n],e[3*t+3][3*n]),e[3*t+2][3*n]=a(e[3*t+3][3*n],e[3*t][3*n]));break;case&quot;L&quot;:0===i?(e[3*t][3*n+3]=u[0],e[3*t][3*n+1]=a(e[3*t][3*n],e[3*t][3*n+3]),e[3*t][3*n+2]=a(e[3*t][3*n+3],e[3*t][3*n])):1===i?(e[3*t+3][3*n+3]=u[0],e[3*t+1][3*n+3]=a(e[3*t][3*n+3],e[3*t+3][3*n+3]),e[3*t+2][3*n+3]=a(e[3*t+3][3*n+3],e[3*t][3*n+3])):2===i?(0===n&amp;&amp;(e[3*t+3][3*n+0]=u[0]),e[3*t+3][3*n+1]=a(e[3*t+3][3*n],e[3*t+3][3*n+3]),e[3*t+3][3*n+2]=a(e[3*t+3][3*n+3],e[3*t+3][3*n])):(e[3*t+1][3*n]=a(e[3*t][3*n],e[3*t+3][3*n]),e[3*t+2][3*n]=a(e[3*t+3][3*n],e[3*t][3*n]));break;case&quot;c&quot;:0===i?(e[3*t][3*n+1]=u[0].add(e[3*t][3*n]),e[3*t][3*n+2]=u[1].add(e[3*t][3*n]),e[3*t][3*n+3]=u[2].add(e[3*t][3*n])):1===i?(e[3*t+1][3*n+3]=u[0].add(e[3*t][3*n+3]),e[3*t+2][3*n+3]=u[1].add(e[3*t][3*n+3]),e[3*t+3][3*n+3]=u[2].add(e[3*t][3*n+3])):2===i?(e[3*t+3][3*n+2]=u[0].add(e[3*t+3][3*n+3]),e[3*t+3][3*n+1]=u[1].add(e[3*t+3][3*n+3]),0===n&amp;&amp;(e[3*t+3][3*n+0]=u[2].add(e[3*t+3][3*n+3]))):(e[3*t+2][3*n]=u[0].add(e[3*t+3][3*n]),e[3*t+1][3*n]=u[1].add(e[3*t+3][3*n]));break;case&quot;C&quot;:0===i?(e[3*t][3*n+1]=u[0],e[3*t][3*n+2]=u[1],e[3*t][3*n+3]=u[2]):1===i?(e[3*t+1][3*n+3]=u[0],e[3*t+2][3*n+3]=u[1],e[3*t+3][3*n+3]=u[2]):2===i?(e[3*t+3][3*n+2]=u[0],e[3*t+3][3*n+1]=u[1],0===n&amp;&amp;(e[3*t+3][3*n+0]=u[2])):(e[3*t+2][3*n]=u[0],e[3*t+1][3*n]=u[1]);break;default:console.error(&quot;mesh.js: &quot;+c+&quot; invalid path type.&quot;)}if(0===t&amp;&amp;0===n||r&gt;0){let e=window.getComputedStyle(o[r]).stopColor.match(/^rgb\s*\(\s*(\d+)\s*,\s*(\d+)\s*,\s*(\d+)\s*\)$/i),a=window.getComputedStyle(o[r]).stopOpacity,h=255;a&amp;&amp;(h=Math.floor(255*a)),e&amp;&amp;(0===i?(s[t][n]=[],s[t][n][0]=Math.floor(e[1]),s[t][n][1]=Math.floor(e[2]),s[t][n][2]=Math.floor(e[3]),s[t][n][3]=h):1===i?(s[t][n+1]=[],s[t][n+1][0]=Math.floor(e[1]),s[t][n+1][1]=Math.floor(e[2]),s[t][n+1][2]=Math.floor(e[3]),s[t][n+1][3]=h):2===i?(s[t+1][n+1]=[],s[t+1][n+1][0]=Math.floor(e[1]),s[t+1][n+1][1]=Math.floor(e[2]),s[t+1][n+1][2]=Math.floor(e[3]),s[t+1][n+1][3]=h):3===i&amp;&amp;(s[t+1][n]=[],s[t+1][n][0]=Math.floor(e[1]),s[t+1][n][1]=Math.floor(e[2]),s[t+1][n][2]=Math.floor(e[3]),s[t+1][n][3]=h))}}e[3*t+1][3*n+1]=new x,e[3*t+1][3*n+2]=new x,e[3*t+2][3*n+1]=new x,e[3*t+2][3*n+2]=new x,e[3*t+1][3*n+1].x=(-4*e[3*t][3*n].x+6*(e[3*t][3*n+1].x+e[3*t+1][3*n].x)+-2*(e[3*t][3*n+3].x+e[3*t+3][3*n].x)+3*(e[3*t+3][3*n+1].x+e[3*t+1][3*n+3].x)+-1*e[3*t+3][3*n+3].x)/9,e[3*t+1][3*n+2].x=(-4*e[3*t][3*n+3].x+6*(e[3*t][3*n+2].x+e[3*t+1][3*n+3].x)+-2*(e[3*t][3*n].x+e[3*t+3][3*n+3].x)+3*(e[3*t+3][3*n+2].x+e[3*t+1][3*n].x)+-1*e[3*t+3][3*n].x)/9,e[3*t+2][3*n+1].x=(-4*e[3*t+3][3*n].x+6*(e[3*t+3][3*n+1].x+e[3*t+2][3*n].x)+-2*(e[3*t+3][3*n+3].x+e[3*t][3*n].x)+3*(e[3*t][3*n+1].x+e[3*t+2][3*n+3].x)+-1*e[3*t][3*n+3].x)/9,e[3*t+2][3*n+2].x=(-4*e[3*t+3][3*n+3].x+6*(e[3*t+3][3*n+2].x+e[3*t+2][3*n+3].x)+-2*(e[3*t+3][3*n].x+e[3*t][3*n+3].x)+3*(e[3*t][3*n+2].x+e[3*t+2][3*n].x)+-1*e[3*t][3*n].x)/9,e[3*t+1][3*n+1].y=(-4*e[3*t][3*n].y+6*(e[3*t][3*n+1].y+e[3*t+1][3*n].y)+-2*(e[3*t][3*n+3].y+e[3*t+3][3*n].y)+3*(e[3*t+3][3*n+1].y+e[3*t+1][3*n+3].y)+-1*e[3*t+3][3*n+3].y)/9,e[3*t+1][3*n+2].y=(-4*e[3*t][3*n+3].y+6*(e[3*t][3*n+2].y+e[3*t+1][3*n+3].y)+-2*(e[3*t][3*n].y+e[3*t+3][3*n+3].y)+3*(e[3*t+3][3*n+2].y+e[3*t+1][3*n].y)+-1*e[3*t+3][3*n].y)/9,e[3*t+2][3*n+1].y=(-4*e[3*t+3][3*n].y+6*(e[3*t+3][3*n+1].y+e[3*t+2][3*n].y)+-2*(e[3*t+3][3*n+3].y+e[3*t][3*n].y)+3*(e[3*t][3*n+1].y+e[3*t+2][3*n+3].y)+-1*e[3*t][3*n+3].y)/9,e[3*t+2][3*n+2].y=(-4*e[3*t+3][3*n+3].y+6*(e[3*t+3][3*n+2].y+e[3*t+2][3*n+3].y)+-2*(e[3*t+3][3*n].y+e[3*t][3*n+3].y)+3*(e[3*t][3*n+2].y+e[3*t+2][3*n].y)+-1*e[3*t][3*n].y)/9}}this.nodes=e,this.colors=s}paintMesh(t,e){let s=(this.nodes.length-1)/3,r=(this.nodes[0].length-1)/3;if(&quot;bilinear&quot;===this.type||s&lt;2||r&lt;2){let n;for(let o=0;o&lt;s;++o)for(let s=0;s&lt;r;++s){let r=[];for(let t=3*o,e=3*o+4;t&lt;e;++t)r.push(this.nodes[t].slice(3*s,3*s+4));let i=[];i.push(this.colors[o].slice(s,s+2)),i.push(this.colors[o+1].slice(s,s+2)),(n=new m(r,i)).paint(t,e)}}else{let n,o,a,h,l,d,u;const x=s,g=r;s++,r++;let w=new Array(s);for(let t=0;t&lt;s;++t){w[t]=new Array(r);for(let e=0;e&lt;r;++e)w[t][e]=[],w[t][e][0]=this.nodes[3*t][3*e],w[t][e][1]=this.colors[t][e]}for(let t=0;t&lt;s;++t)for(let e=0;e&lt;r;++e)0!==t&amp;&amp;t!==x&amp;&amp;(n=i(w[t-1][e][0],w[t][e][0]),o=i(w[t+1][e][0],w[t][e][0]),w[t][e][2]=c(w[t-1][e][1],w[t][e][1],w[t+1][e][1],n,o)),0!==e&amp;&amp;e!==g&amp;&amp;(n=i(w[t][e-1][0],w[t][e][0]),o=i(w[t][e+1][0],w[t][e][0]),w[t][e][3]=c(w[t][e-1][1],w[t][e][1],w[t][e+1][1],n,o));for(let t=0;t&lt;r;++t){w[0][t][2]=[],w[x][t][2]=[];for(let e=0;e&lt;4;++e)n=i(w[1][t][0],w[0][t][0]),o=i(w[x][t][0],w[x-1][t][0]),w[0][t][2][e]=n&gt;0?2*(w[1][t][1][e]-w[0][t][1][e])/n-w[1][t][2][e]:0,w[x][t][2][e]=o&gt;0?2*(w[x][t][1][e]-w[x-1][t][1][e])/o-w[x-1][t][2][e]:0}for(let t=0;t&lt;s;++t){w[t][0][3]=[],w[t][g][3]=[];for(let e=0;e&lt;4;++e)n=i(w[t][1][0],w[t][0][0]),o=i(w[t][g][0],w[t][g-1][0]),w[t][0][3][e]=n&gt;0?2*(w[t][1][1][e]-w[t][0][1][e])/n-w[t][1][3][e]:0,w[t][g][3][e]=o&gt;0?2*(w[t][g][1][e]-w[t][g-1][1][e])/o-w[t][g-1][3][e]:0}for(let s=0;s&lt;x;++s)for(let r=0;r&lt;g;++r){let n=i(w[s][r][0],w[s+1][r][0]),o=i(w[s][r+1][0],w[s+1][r+1][0]),c=i(w[s][r][0],w[s][r+1][0]),x=i(w[s+1][r][0],w[s+1][r+1][0]),g=[[],[],[],[]];for(let t=0;t&lt;4;++t){(d=[])[0]=w[s][r][1][t],d[1]=w[s+1][r][1][t],d[2]=w[s][r+1][1][t],d[3]=w[s+1][r+1][1][t],d[4]=w[s][r][2][t]*n,d[5]=w[s+1][r][2][t]*n,d[6]=w[s][r+1][2][t]*o,d[7]=w[s+1][r+1][2][t]*o,d[8]=w[s][r][3][t]*c,d[9]=w[s+1][r][3][t]*x,d[10]=w[s][r+1][3][t]*c,d[11]=w[s+1][r+1][3][t]*x,d[12]=0,d[13]=0,d[14]=0,d[15]=0,u=f(d);for(let e=0;e&lt;9;++e){g[t][e]=[];for(let s=0;s&lt;9;++s)g[t][e][s]=p(u,e/8,s/8),g[t][e][s]&gt;255?g[t][e][s]=255:g[t][e][s]&lt;0&amp;&amp;(g[t][e][s]=0)}}h=[];for(let t=3*s,e=3*s+4;t&lt;e;++t)h.push(this.nodes[t].slice(3*r,3*r+4));l=y(h);for(let s=0;s&lt;8;++s)for(let r=0;r&lt;8;++r)(a=new m(l[s][r],[[[g[0][s][r],g[1][s][r],g[2][s][r],g[3][s][r]],[g[0][s][r+1],g[1][s][r+1],g[2][s][r+1],g[3][s][r+1]]],[[g[0][s+1][r],g[1][s+1][r],g[2][s+1][r],g[3][s+1][r]],[g[0][s+1][r+1],g[1][s+1][r+1],g[2][s+1][r+1],g[3][s+1][r+1]]]])).paint(t,e)}}}transform(t){if(t instanceof x)for(let e=0,s=this.nodes.length;e&lt;s;++e)for(let s=0,r=this.nodes[0].length;s&lt;r;++s)this.nodes[e][s]=this.nodes[e][s].add(t);else if(t instanceof g)for(let e=0,s=this.nodes.length;e&lt;s;++e)for(let s=0,r=this.nodes[0].length;s&lt;r;++s)this.nodes[e][s]=this.nodes[e][s].transform(t)}scale(t){for(let e=0,s=this.nodes.length;e&lt;s;++e)for(let s=0,r=this.nodes[0].length;s&lt;r;++s)this.nodes[e][s]=this.nodes[e][s].scale(t)}}document.querySelectorAll(&quot;rect,circle,ellipse,path,text&quot;).forEach((r,n)=&gt;{let o=r.getAttribute(&quot;id&quot;);o||(o=&quot;patchjs_shape&quot;+n,r.setAttribute(&quot;id&quot;,o));const i=r.style.fill.match(/^url\(\s*&quot;?\s*#([^\s&quot;]+)&quot;?\s*\)/),a=r.style.stroke.match(/^url\(\s*&quot;?\s*#([^\s&quot;]+)&quot;?\s*\)/);if(i&amp;&amp;i[1]){const a=document.getElementById(i[1]);if(a&amp;&amp;&quot;meshgradient&quot;===a.nodeName){const i=r.getBBox();let l=document.createElementNS(s,&quot;canvas&quot;);d(l,{width:i.width,height:i.height});const c=l.getContext(&quot;2d&quot;);let u=c.createImageData(i.width,i.height);const f=new b(a);&quot;objectBoundingBox&quot;===a.getAttribute(&quot;gradientUnits&quot;)&amp;&amp;f.scale(new x(i.width,i.height));const p=a.getAttribute(&quot;gradientTransform&quot;);null!=p&amp;&amp;f.transform(h(p)),&quot;userSpaceOnUse&quot;===a.getAttribute(&quot;gradientUnits&quot;)&amp;&amp;f.transform(new x(-i.x,-i.y)),f.paintMesh(u.data,l.width),c.putImageData(u,0,0);const y=document.createElementNS(t,&quot;image&quot;);d(y,{width:i.width,height:i.height,x:i.x,y:i.y});let g=l.toDataURL();y.setAttributeNS(e,&quot;xlink:href&quot;,g),r.parentNode.insertBefore(y,r),r.style.fill=&quot;none&quot;;const w=document.createElementNS(t,&quot;use&quot;);w.setAttributeNS(e,&quot;xlink:href&quot;,&quot;#&quot;+o);const m=&quot;patchjs_clip&quot;+n,M=document.createElementNS(t,&quot;clipPath&quot;);M.setAttribute(&quot;id&quot;,m),M.appendChild(w),r.parentElement.insertBefore(M,r),y.setAttribute(&quot;clip-path&quot;,&quot;url(#&quot;+m+&quot;)&quot;),u=null,l=null,g=null}}if(a&amp;&amp;a[1]){const o=document.getElementById(a[1]);if(o&amp;&amp;&quot;meshgradient&quot;===o.nodeName){const i=parseFloat(r.style.strokeWidth.slice(0,-2))*(parseFloat(r.style.strokeMiterlimit)||parseFloat(r.getAttribute(&quot;stroke-miterlimit&quot;))||1),a=r.getBBox(),l=Math.trunc(a.width+i),c=Math.trunc(a.height+i),u=Math.trunc(a.x-i/2),f=Math.trunc(a.y-i/2);let p=document.createElementNS(s,&quot;canvas&quot;);d(p,{width:l,height:c});const y=p.getContext(&quot;2d&quot;);let g=y.createImageData(l,c);const w=new b(o);&quot;objectBoundingBox&quot;===o.getAttribute(&quot;gradientUnits&quot;)&amp;&amp;w.scale(new x(l,c));const m=o.getAttribute(&quot;gradientTransform&quot;);null!=m&amp;&amp;w.transform(h(m)),&quot;userSpaceOnUse&quot;===o.getAttribute(&quot;gradientUnits&quot;)&amp;&amp;w.transform(new x(-u,-f)),w.paintMesh(g.data,p.width),y.putImageData(g,0,0);const M=document.createElementNS(t,&quot;image&quot;);d(M,{width:l,height:c,x:0,y:0});let S=p.toDataURL();M.setAttributeNS(e,&quot;xlink:href&quot;,S);const k=&quot;pattern_clip&quot;+n,A=document.createElementNS(t,&quot;pattern&quot;);d(A,{id:k,patternUnits:&quot;userSpaceOnUse&quot;,width:l,height:c,x:u,y:f}),A.appendChild(M),o.parentNode.appendChild(A),r.style.stroke=&quot;url(#&quot;+k+&quot;)&quot;,g=null,p=null,S=null}}})}();
</script>
</svg>
