<?xml version="1.0" encoding="UTF-8" standalone="no"?>
<!-- Created with Inkscape (http://www.inkscape.org/) -->

<svg
   width="1366"
   height="768"
   viewBox="0 0 1366 768"
   version="1.1"
   id="svg1"
   inkscape:version="1.3.2 (091e20e, 2023-11-25, custom)"
   sodipodi:docname="praa.svg"
   xmlns:inkscape="http://www.inkscape.org/namespaces/inkscape"
   xmlns:sodipodi="http://sodipodi.sourceforge.net/DTD/sodipodi-0.dtd"
   xmlns="http://www.w3.org/2000/svg"
   xmlns:svg="http://www.w3.org/2000/svg">
  <sodipodi:namedview
     id="namedview1"
     pagecolor="#ffffff"
     bordercolor="#000000"
     borderopacity="0.25"
     inkscape:showpageshadow="2"
     inkscape:pageopacity="0.0"
     inkscape:pagecheckerboard="0"
     inkscape:deskcolor="#d1d1d1"
     inkscape:document-units="px"
     inkscape:zoom="0.40904745"
     inkscape:cx="1285.1311"
     inkscape:cy="725.67343"
     inkscape:window-width="1920"
     inkscape:window-height="992"
     inkscape:window-x="-8"
     inkscape:window-y="-8"
     inkscape:window-maximized="1"
     inkscape:current-layer="layer1"
     inkscape:rotation="2" />
  <defs
     id="defs1" />
  <g
     inkscape:label="Calque 1"
     inkscape:groupmode="layer"
     id="layer1">
    <rect
       style="fill:#1b9eff;fill-opacity:1;stroke-width:0.356424"
       id="rect9"
       width="1521.7102"
       height="578.14612"
       x="-15.881297"
       y="-6.9002676" />
    <path
       style="fill:#004800;fill-opacity:1;stroke-width:0.435315"
       d="m 871.91644,484.12423 c 0,0 -169.77997,-234.12681 -597.92075,-13.88529 -428.14088,220.24148 -509.34002,318.23709 -509.34002,318.23709 l 1103.5699,-1.15714 z"
       id="path1-1-3" />
    <path
       style="fill:#008000;stroke-width:0.356424"
       d="m -13.406996,479.57371 c 0,0 113.818986,-237.12552 400.840756,-24.44593 287.02178,212.67954 341.45693,309.24098 341.45693,309.24098 L -10.932653,782.7032 Z"
       id="path1" />
    <path
       style="fill:#009300;fill-opacity:1;stroke-width:0.435315"
       d="m 1379.6441,531.06132 c 0,0 -169.78,-234.12679 -597.92073,-13.88526 -428.14084,220.24148 -509.34,318.23708 -509.34,318.23708 L 1375.9532,834.256 Z"
       id="path1-1" />
    <path
       style="fill:#00ff00;fill-opacity:1;stroke-width:0.356424"
       d="m 553.21359,709.36541 c 7.75998,-10.47656 16.95395,-20.0006 27.21759,-28.11284 2.56518,-2.02748 1.23715,16.6249 1.23715,17.11218 0,1.22226 -0.87479,4.53115 0,3.66688 0.65206,-0.64422 0.58512,-1.80039 1.23716,-2.44462 0.65207,-0.6442 1.76591,-0.63903 2.47435,-1.22226 16.4955,-13.58109 -10.30969,6.11147 12.37161,-12.22299 3.6313,-2.93534 7.19239,-4.35032 7.42298,-3.66691 3.61758,10.72242 -9.64603,20.28258 -13.60877,28.11283 -1.16311,2.29822 0.20189,2.24512 -2.47434,4.8892"
       id="path9" />
    <path
       style="fill:#00ff00;fill-opacity:1;stroke-width:0.356424"
       d="m 815.49212,603.02562 c 0,-1.62974 -0.45317,-3.32215 0,-4.8892 0.40847,-1.41249 1.80935,-2.35296 2.47432,-3.66691 1.74962,-3.45712 1.96185,-7.54346 3.71147,-11.00063 1.73988,-3.43792 4.2556,-6.44112 6.18583,-9.77838 4.17724,-7.22234 7.5455,-17.23316 13.60881,-23.22362 0.65203,-0.64423 1.23714,1.53356 1.23714,2.44462 0,4.07428 0,8.1486 0,12.22294 0,1.22228 -1.0294,4.3449 0,3.66687 4.51081,-2.97104 7.12395,-9.79186 9.8973,-13.44525 1.39969,-1.84382 3.71228,-2.93471 4.94865,-4.88918 0.9012,-1.42452 0.47677,-3.38664 1.23719,-4.88922 1.61265,-3.18653 0.48616,5.83811 -1.23719,12.22298 -5.4812,20.30763 0.97797,-7.11258 -6.18579,15.88986 -1.76705,5.67387 -2.19726,10.45316 -4.94869,15.88987"
       id="path10" />
    <path
       style="fill:#00ff00;fill-opacity:1;stroke-width:0.356424"
       d="m 999.82938,495.46354 c 0.41242,-2.4446 0.82472,-4.88916 1.23712,-7.3338 0,-1.22227 -0.1749,-2.45684 0,-3.66685 0.2405,-1.66301 1.0263,-3.2223 1.2372,-4.88918 0.358,-2.83001 -2.0412,-6.53939 0,-8.55611 3.6753,-3.63108 3.7989,14.71076 6.1858,15.88987 2.3186,1.14535 5.8241,-8.19882 7.423,-9.7784 1.2736,-1.25827 1.2008,-2.40858 2.4743,-3.66685 0.9241,-0.91305 -1.6769,8.16217 2.4744,6.11149 1.8573,-0.91755 5.5391,-6.11149 7.423,-6.11149 1.4868,0 -2.522,1.56316 -3.7115,2.44459 -0.5863,0.43442 -11.1345,13.04686 -11.1345,14.66757"
       id="path11" />
    <path
       style="fill:#00ff00;fill-opacity:1;stroke-width:0.356424"
       d="m 972.61179,631.13843 c 0.82479,-2.03713 1.83619,-4.0099 2.47431,-6.11149 0.60425,-1.98987 0.65951,-4.1139 1.23718,-6.11147 0.64552,-2.23211 2.66456,-4.04283 3.7115,-6.11145 0.58319,-1.15244 0.315,-2.75588 1.23715,-3.66691 0.2916,-0.28813 1.05273,0.36442 1.23719,0 4.83292,-9.54968 -6.14109,4.84497 2.47431,-3.66693 0.29157,-0.2881 0,-1.62968 0,-1.22227 0,1.75479 -0.7818,7.01127 0,8.55611 0.96409,1.90497 8.09833,-5.44424 9.89733,-3.66691 0.76894,0.7597 -13.53783,6.04136 -19.79466,12.22296"
       id="path12" />
    <path
       style="fill:#00ff00;fill-opacity:1;stroke-width:0.356424"
       d="m 1123.3101,628.17847 c 1.2893,-6.03769 0.1364,-9.09413 -0.6906,-14.69411 -0.5214,-3.53126 -1.0264,-6.36804 -1.8742,-9.99201 -1.4013,-5.98982 -0.6824,-3.06541 -1.5784,-5.28988 -0.4354,-1.08103 2.2343,0.84415 3.1567,1.56738 2.5467,1.99653 11.3736,10.34794 14.5998,9.99199 2.6047,-0.28741 5.962,-19.26916 8.5822,-16.16353 2.485,2.94544 3.3892,6.97148 2.5648,10.67774 -2.0046,9.01034 -16.6748,31.25124 -24.7603,35.26586"
       id="path13" />
    <path
       style="fill:#00ff00;fill-opacity:1;stroke-width:0.356424"
       d="m 1111.7684,521.40121 c 1.5984,-11.01927 2.8256,-21.20814 9.1742,-30.85766 0.2787,-0.42359 5.6117,-5.4303 6.8065,-6.46541 0.844,-0.73101 2.784,-3.24266 2.5648,-2.15514 -0.6139,3.04841 -3.0077,5.46084 -4.4391,8.22872 -0.014,0.0263 -2.0197,5.34931 -2.8606,5.97556 -1.0538,0.78483 1.4165,-2.23082 2.3675,-3.13471 5.5046,-5.23219 10.0979,-8.77227 18.0523,-7.83687 0.3704,0.0437 0.8079,0.41566 0.7891,0.78369 -0.086,1.70109 -0.1189,3.58548 -1.0851,4.99602 -4.3054,6.28509 -10.0174,9.98902 -15.093,15.3798 -3.589,3.81222 -6.24,8.64321 -10.1605,12.14719"
       id="path14" />
    <path
       style="fill:#00ff00;fill-opacity:1;stroke-width:0.356424"
       d="m 1211.8946,503.96419 c 1.8575,-11.59166 4.391,-23.05671 6.6093,-34.58019 0.1858,-0.96496 0.8483,-6.15311 2.1702,-6.56335 6.4458,-2.00026 3.949,28.30934 2.5649,28.89845 -0.8464,0.36019 0.2065,-1.87016 0.6905,-2.64496 1.7126,-2.74129 3.3871,-5.50592 5.1296,-8.2287 2.6726,-4.17606 9.3903,-16.75129 9.6674,-16.75129 0.9635,0 -0.1699,1.89706 -0.296,2.84086 -0.2572,1.92733 -0.45,3.8648 -0.7892,5.77968 -1.2911,7.28847 -4.2892,14.15541 -6.2146,21.25747 -0.8674,3.1993 -0.7892,3.20961 -0.7892,5.48581 0,0.26126 -0.1242,1.01445 0,0.7837 1.2669,-2.35902 2.193,-4.88629 3.4526,-7.2491"
       id="path15" />
    <path
       style="fill:#00ff00;fill-opacity:1;stroke-width:0.356424"
       d="m 1259.0476,566.16926 c 7.3772,-4.56274 9.5526,-31.31212 16.2767,-32.42502 1.9898,-0.32928 -0.6861,15.15343 -0.9864,17.24111 -0.1355,0.9425 -1.1977,3.17662 -0.296,2.84088 6.1379,-2.28572 8.3909,-11.95655 13.1199,-16.16351 1.3646,-1.21392 4.1113,-4.67717 4.6365,-2.93884 1.3416,4.44097 0.6407,10.49856 0.296,14.988 -0.1457,1.89845 -0.3467,3.7933 -0.592,5.68174 -0.028,0.20471 -0.3953,0.65332 -0.1973,0.58773 4.1747,-1.38188 17.5272,-14.49667 18.0523,-13.71449 4.4689,6.65674 -5.9407,26.48011 -7.9904,32.62094 -2.1373,6.40351 -2.3128,11.14424 -1.7756,11.26549 1.7471,0.39432 2.8936,-2.08984 4.3405,-3.13474"
       id="path16" />
    <path
       style="fill:#00ff00;fill-opacity:1;stroke-width:0.356424"
       d="m 1014.2071,751.74469 c 3.7689,-6.35996 8.9416,-12.22263 11.3443,-19.29826 2.9035,-8.55054 -1.0628,-0.32365 2.7622,-9.99203 0.5977,-1.51085 2.7068,-7.96784 4.9323,-6.07354"
       id="path17" />
    <path
       style="fill:#00ff00;fill-opacity:1;stroke-width:0.356424"
       d="m 1217.5174,723.72792 c 0.7611,-14.88837 11.3094,-28.00239 18.5456,-40.75169"
       id="path18" />
    <path
       style="fill:#00ff00;fill-opacity:1;stroke-width:0.356424"
       d="m 1237.3455,737.44244 c 2.582,-19.75898 15.508,-36.75007 26.6345,-52.89885"
       id="path19" />
    <path
       style="fill:#00ff00;fill-opacity:1;stroke-width:0.356424"
       d="m 1278.8756,730.58516 c -1.085,-2.08984 -2.9237,-3.94367 -3.2553,-6.2695 -0.7995,-5.60753 10.44,-19.60526 13.6132,-23.90244"
       id="path20" />
    <path
       style="fill:#00ff00;fill-opacity:1;stroke-width:0.356424"
       d="M 693.50737,667.30247 C 706.52274,643.1 699.31233,654.2656 714.81503,633.60399"
       id="path21" />
    <path
       style="fill:#00ff00;fill-opacity:1;stroke-width:0.356424"
       d="m 698.63698,715.10734 c 3.76204,-21.73547 17.5242,-33.23486 32.15879,-49.66612"
       id="path22" />
    <path
       style="fill:#00b300;fill-opacity:1;stroke-width:0.356424"
       d="m 24.684236,533.0962 c -0.427491,-2.6123 -1.329573,-5.19107 -1.28241,-7.83688 0.06469,-3.62524 16.655944,-21.99269 18.841485,-22.92281 3.925993,-1.67086 -5.679652,22.22273 -6.017451,22.92281 -0.649378,1.34585 -3.102779,4.82401 -1.775645,4.11438 3.301004,-1.7651 5.697185,-5.35443 8.582248,-7.64096 18.471175,-14.63892 9.295155,0.31077 2.268882,9.50221 -4.178035,5.46549 -17.154985,15.26792 -2.071584,10.6777"
       id="path23" />
    <path
       style="fill:#00b300;fill-opacity:1;stroke-width:0.356424"
       d="m 57.730802,464.22978 c 7.299842,-11.39612 14.599661,-22.79222 21.899521,-34.18832"
       id="path24" />
    <path
       style="fill:#00b300;fill-opacity:1;stroke-width:0.356424"
       d="m 86.535589,465.50326 c 8.713759,-9.60016 17.427521,-19.20033 26.141301,-28.80049"
       id="path25" />
    <path
       style="fill:#00b300;fill-opacity:1;stroke-width:0.356424"
       d="m 136.15475,430.04146 c 8.77953,-7.51035 17.55908,-15.02067 26.33861,-22.53101"
       id="path26" />
    <path
       style="fill:#00b300;fill-opacity:1;stroke-width:0.356424"
       d="m 130.43326,510.76114 c -1.74763,-14.1007 -2.06168,-4.63775 13.11997,-25.27388"
       id="path27" />
    <path
       style="fill:#00b300;fill-opacity:1;stroke-width:0.356424"
       d="M 30.898943,607.64438 C 88.871317,549.40765 16.261372,614.95829 53.09442,618.616"
       id="path28" />
    <path
       style="fill:#00b300;fill-opacity:1;stroke-width:0.356424"
       d="m 29.024679,706.38887 c -18.693969,0.21617 10.883077,-34.44735 15.290194,-25.95963 5.468183,10.53128 -7.900885,18.86551 -5.721492,28.60456"
       id="path29" />
    <path
       style="fill:#00b300;fill-opacity:1;stroke-width:0.356424"
       d="m 127.86844,624.98341 c -12.78282,36.38772 3.14105,-33.43345 6.90527,-25.46979 1.31516,2.78238 -0.39081,33.50887 -0.39461,33.60056"
       id="path30" />
    <path
       style="fill:#00b300;fill-opacity:1;stroke-width:0.356424"
       d="m 294.28506,489.01385 c 5.68861,-10.2859 10.50829,-21.08974 17.06584,-30.85767 1.39036,-2.07103 -0.54974,4.96967 -1.28241,7.34708 -1.61024,5.22508 -3.85305,10.23931 -5.72148,15.37984 -0.13803,0.38004 -0.55544,1.48746 -0.29595,1.17552 4.56926,-5.49279 14.36964,-20.53629 14.69832,-13.02878 0.1117,2.55127 -0.29063,7.01449 -1.18374,9.40422 -2.70242,7.23088 -14.65281,18.61204 -18.44691,23.90245 -6.50794,9.0746 -7.35905,11.15293 -11.54163,19.20032"
       id="path31" />
    <path
       style="fill:#00b300;fill-opacity:1;stroke-width:0.356424"
       d="m 350.51357,681.50682 c 6.01744,-6.92259 12.24905,-13.66886 18.05231,-20.76772 14.96,-18.29993 -17.99071,16.66779 -18.05231,20.76772 -0.0738,4.89831 21.91894,-21.18211 22.49139,-21.64935 1.16959,-0.95463 3.77696,-3.31582 4.14315,-1.86127 3.28771,13.0594 -13.25617,28.07385 -20.41981,35.26592"
       id="path32" />
    <path
       style="fill:#00b300;fill-opacity:1;stroke-width:0.356424"
       d="m 376.55623,568.55799 c 9.10835,-10.44915 18.21671,-20.89828 27.32506,-31.34745"
       id="path33" />
    <path
       style="fill:#00b300;fill-opacity:1;stroke-width:0.356424"
       d="m 389.97214,580.31331 c 24.01337,-13.97452 13.41377,-5.63654 32.06014,-24.68613"
       id="path34" />
    <path
       style="fill:#00b300;fill-opacity:1;stroke-width:0.356424"
       d="m 339.66244,546.22298 c 1.29895,7.15317 1.97503,4.15288 -0.49322,9.20829"
       id="path35" />
    <path
       style="fill:#00b300;fill-opacity:1;stroke-width:0.356424"
       d="m 245.25777,643.69395 c 6.28048,-9.56751 12.56097,-19.13505 18.84146,-28.70249 0.9536,-0.71841 2.77051,-3.33659 2.86074,-2.15517 0.0362,0.47496 -2.16257,19.77495 -2.66342,24.19633"
       id="path36" />
    <path
       style="fill:#00b300;fill-opacity:1;stroke-width:0.356424"
       d="m 205.01,710.7971 c -30.40273,-50.64245 25.82574,-27.80168 23.77381,-18.12274 -0.92669,4.37112 -4.00791,8.01445 -5.72151,12.14711 -0.34023,0.82055 1.05224,-1.43676 1.57834,-2.15512"
       id="path37" />
    <path
       style="fill:#009c00;fill-opacity:1;stroke-width:0.356424"
       d="m 206.88427,428.27815 c -27.2004,9.28097 19.94863,-21.04082 20.02523,-13.12677 0.0921,9.52479 -5.04369,18.38823 -7.39845,27.62495"
       id="path38" />
    <path
       style="fill:#009c00;fill-opacity:1;stroke-width:0.356424"
       d="m 507.36146,479.70758 c 2.82546,0.69916 13.78732,-18.35849 19.43334,-17.33907 12.5755,2.27055 0.88153,16.65496 4.93235,10.77567"
       id="path39" />
    <path
       style="fill:#009c00;fill-opacity:1;stroke-width:0.356424"
       d="m 585.0949,569.24374 c 3.60929,-4.79044 0.59459,-10.88147 2.36753,-15.96762 0.33259,-0.95421 2.05057,-0.0291 3.05804,-0.19589 0.97594,-0.16143 1.90715,-0.52245 2.86072,-0.78369"
       id="path40" />
    <path
       style="fill:#009c00;fill-opacity:1;stroke-width:0.356424"
       d="m 627.11827,576.5908 c -0.56523,-1.92453 -3.95163,-9.25903 -0.98645,-11.95121 0.72771,-0.6607 1.42091,1.48265 2.36749,1.7633 3.79151,1.12389 3.62332,0.72236 5.62286,-0.97963"
       id="path41" />
    <path
       style="fill:#009c00;fill-opacity:1;stroke-width:0.356424"
       d="m 666.67553,566.10896 c -2.01182,-17.8756 -4.12073,-20.99556 6.21472,-15.67371"
       id="path42" />
    <path
       style="fill:#009c00;fill-opacity:1;stroke-width:0.356424"
       d="m 730.40119,492.8343 c 2.15935,-6.67698 5.14246,-19.82439 14.99425,-12.34306"
       id="path43" />
    <path
       style="fill:#009c00;fill-opacity:1;stroke-width:0.356424"
       d="m 723.39728,436.21296 c 2.66345,-2.3837 5.33056,-4.7634 7.99034,-7.1511 13.69626,-12.2954 -7.22864,12.69142 -7.99034,12.93081 -1.85827,0.58396 0,-3.85314 0,-5.77971 z"
       id="path44" />
    <path
       style="fill:#009c00;fill-opacity:1;stroke-width:0.356424"
       d="m 655.23255,415.73915 c 5.91304,-5.84034 10.39702,-28.81768 7.49713,-5.77968"
       id="path45" />
    <path
       style="fill:#009c00;fill-opacity:1;stroke-width:0.356424"
       d="m 619.62114,498.41811 c 0.0976,-21.56493 21.09041,-33.37162 7.79307,-11.36347 -0.43011,0.71189 1.34174,-1.05362 1.77565,-1.76329 1.58558,-2.5934 3.83591,-7.62141 3.94587,-7.44502 3.12538,5.01363 -4.76485,13.06409 -5.91879,18.22068"
       id="path46" />
    <path
       style="fill:#009c00;fill-opacity:1;stroke-width:0.356424"
       d="m 571.67899,408.88191 c -11.99636,2.98978 0.4933,-15.44744 2.86074,-12.0492 3.61938,5.1953 3.79249,12.07739 6.41201,17.82888 0.99637,2.18766 2.89365,3.85315 4.34047,5.77969"
       id="path47" />
    <path
       style="fill:#9c008f;fill-opacity:1;stroke-width:0.356424"
       id="path48"
       d="m 234.48655,147.81646 c -0.90188,-6.49643 -3.91688,-12.42451 -6.45185,-18.40439 -2.67357,-6.30683 -2.70026,-6.49331 -5.23214,-12.90884 -2.83311,-7.91365 -5.71196,-15.91451 -7.05072,-24.239137 -0.80228,-4.988541 -0.65981,-6.006258 -0.77896,-10.998812 0.24477,-1.81887 0.21985,-3.693533 0.73427,-5.456611 1.72328,-5.906345 5.9098,-11.411564 11.15412,-14.699125 4.43394,-2.779564 6.45691,-2.762814 11.40151,-3.795883 4.72768,0.06549 5.32592,-0.378156 9.63613,1.330472 0.19188,0.07608 0.0929,0.407456 0.20765,0.577429 0.94766,1.404959 2.11817,2.665166 2.96765,4.130125 2.02267,3.488141 2.95194,6.7926 4.2599,10.575268 2.42077,7.15325 3.15372,14.696406 4.81151,22.019017 1.13726,5.023317 1.55351,5.739857 3.26717,10.534837 3.41922,7.87612 6.79883,12.81197 15.49998,15.45343 0.90732,0.27542 1.89749,-0.0565 2.84624,-0.0847 9.38766,-2.75812 15.95202,-10.51449 22.47459,-17.29412 7.45332,-8.03394 15.59874,-15.377709 24.49054,-21.819056 4.48295,-2.738439 9.34621,-5.904523 14.85323,-5.773804 3.23562,0.07682 4.74737,0.833492 7.75297,1.840058 1.12755,0.549516 2.27796,1.055357 3.38257,1.64852 0.25468,0.136753 -1.00148,-0.500935 -0.82394,-0.27457 0.60678,0.773685 1.53224,1.255909 2.17665,1.999334 1.0795,1.245364 1.9283,2.781342 1.99839,4.465315 0.0369,0.883809 -0.2539,1.75123 -0.38086,2.626843 -0.35361,0.927811 -0.6479,1.87986 -1.0609,2.783409 -1.49266,3.265877 -3.59612,6.26566 -5.44425,9.335151 -2.07091,3.43949 -2.27062,3.8736 -4.22454,7.39576 -3.70163,6.73595 -6.79732,13.77307 -9.05432,21.10521 -0.74754,3.28403 -1.818,6.70526 -1.36309,10.11945 0.39114,2.93562 1.01388,3.98323 2.11775,6.79609 4.13936,8.38325 10.92464,14.92752 17.43151,21.51384 6.41557,5.9259 11.63121,12.72527 15.88271,20.28357 2.66477,5.2328 5.29122,10.62581 5.71672,16.5642 0.28438,3.96923 -0.11853,5.50431 -0.63133,9.4302 -0.38347,1.47102 -0.54529,3.01658 -1.15035,4.41305 -2.70766,6.24956 -9.67149,8.9387 -16.19027,8.89447 -1.75627,-0.0136 -3.48677,-0.42018 -5.23013,-0.63029 -4.63458,-1.50726 -5.64322,-1.5405 -9.85468,-4.10693 -0.37546,-0.2288 -0.54295,-0.69147 -0.86359,-0.99086 -1.5255,-1.42431 -3.19849,-2.69446 -4.66865,-4.17447 -4.04411,-4.07132 -5.22146,-6.02626 -8.6175,-10.63325 -4.50563,-6.57294 -8.31399,-13.57796 -13.23338,-19.87151 -2.85483,-3.65232 -3.44578,-4.15655 -6.51181,-7.4629 -3.98424,-4.27693 -8.74651,-7.25187 -14.11819,-9.61438 -1.37709,-0.60565 -3.54645,-0.70233 -4.99218,-0.84767 -6.11294,-0.21048 -12.19901,0.56049 -18.04937,2.28718 -7.9967,3.61496 -13.29804,10.86742 -18.41437,17.64524 -5.27896,8.07599 -12.09667,14.42262 -19.50859,20.52803 -7.09593,5.93315 -14.50736,10.69643 -23.9235,11.93256 -1.83493,0.24088 -3.69616,0.20821 -5.54425,0.31228 -1.76251,-0.10367 -3.53296,-0.1162 -5.28756,-0.31131 -3.69835,-0.41099 -12.74979,-2.31762 -15.5401,-5.00043 -0.37146,-0.35715 1.01606,0.20362 1.52406,0.30539 -0.59194,-0.84962 -1.31543,-1.62313 -1.77582,-2.54889 -3.20329,-6.44139 -1.5758,-14.80921 0.0254,-21.41998 2.53731,-8.23234 7.9808,-13.68847 14.54328,-18.94451 4.83758,-3.65855 9.88552,-7.02491 14.70515,-10.70718 3.70974,-3.0336 7.30138,-6.20483 10.97801,-9.2794 2.36513,-1.97214 1.79742,-0.72716 1.82515,-3.67828 0,0 -0.9325,-0.5752 -0.9325,-0.5752 v 0 c -3.77188,0.43096 -2.2257,-0.30014 -4.78901,1.85094 -3.66432,3.07956 -7.27624,6.2202 -10.97398,9.25895 -4.79926,3.70467 -9.85269,7.06091 -14.67145,10.74011 -6.72592,5.43345 -11.98876,10.77092 -14.66079,19.21496 -1.63759,6.71916 -3.27497,15.11745 -0.23699,21.72781 0.44144,0.96051 1.1479,1.77906 1.72186,2.66863 2.4403,1.64295 6.17732,4.4505 9.23827,5.82911 5.60935,2.52638 11.85111,3.32733 17.95207,3.45191 1.86053,-0.12231 3.73546,-0.10808 5.58158,-0.36717 9.45345,-1.32657 16.89951,-6.14913 24.03266,-12.11816 7.48442,-6.17591 14.20773,-12.4667 19.54569,-20.62701 5.05799,-6.71322 10.29004,-13.92505 18.27294,-17.39758 5.82943,-1.66457 11.8867,-2.42911 17.96212,-2.13257 0.8509,0.10375 1.71134,0.14817 2.55269,0.31093 0.79741,0.15417 1.66877,1.07435 2.35064,0.63776 0.53934,-0.34533 -2.13178,-1.3734 -1.52394,-1.16705 2.89342,0.9823 5.8924,4.45042 8.0838,6.35968 3.11019,3.31089 3.66491,3.76597 6.56018,7.43188 4.95998,6.28008 8.7857,13.29008 13.27829,19.8867 3.373,4.62534 4.5555,6.59827 8.56141,10.704 6.23481,6.39014 14.27031,11.09331 22.90187,13.46876 1.76295,0.18302 3.51628,0.56534 5.28887,0.54908 6.68821,-0.0615 13.69632,-2.95688 16.46494,-9.33494 0.61305,-1.41223 0.77935,-2.97524 1.16898,-4.46288 0.53348,-3.95481 0.94447,-5.52783 0.69458,-9.53062 -0.37397,-5.98998 -2.9725,-11.42441 -5.64972,-16.705 -4.20568,-7.61244 -9.40149,-14.45521 -15.84321,-20.39351 -6.48103,-6.55705 -13.27802,-13.03184 -17.4711,-21.34263 -1.09814,-2.72225 -1.73809,-3.7944 -2.14519,-6.64062 -0.48192,-3.36933 0.56086,-6.76286 1.26314,-10.01435 2.19748,-7.32435 5.25397,-14.34786 8.94412,-21.06285 2.00377,-3.61915 2.08603,-3.84714 4.21509,-7.37789 1.86467,-3.09233 3.98088,-6.111287 5.49493,-9.397805 0.42811,-0.929259 0.73929,-1.906849 1.10896,-2.860272 0.15316,-0.923515 0.47312,-1.834796 0.45952,-2.770534 -0.0953,-6.557659 -9.27591,-9.924788 -14.0214,-12.285489 -3.08864,-0.97151 -4.55468,-1.688016 -7.86481,-1.696652 -5.55127,-0.01457 -10.42922,3.17834 -14.93225,5.985647 -8.86955,6.495612 -17.01928,13.863077 -24.47746,21.912275 -5.50999,5.71642 -11.61217,12.89532 -19.15575,16.01947 -1.02575,0.42479 -2.12774,0.64102 -3.1916,0.96155 -0.9212,-0.006 -2.00364,-0.53222 -2.76365,-0.0178 -0.43462,0.29418 1.48196,1.38356 0.98017,1.22496 -4.08534,-1.29114 -7.90684,-8.94521 -9.43452,-12.41562 -1.69666,-4.659 -2.19981,-5.60966 -3.33314,-10.495108 -1.70364,-7.344048 -2.42895,-14.923275 -4.85962,-22.105223 -1.4075,-4.099194 -3.74096,-11.973966 -7.14935,-14.942402 -5.68839,-4.95416 -9.65734,-5.755124 -16.69984,-5.51961 -4.99744,1.11027 -6.99843,1.112212 -11.46454,3.97524 -5.28441,3.387601 -9.50447,8.975385 -11.23788,14.972253 -0.51609,1.785376 -0.48723,3.682197 -0.73084,5.523284 0.13263,5.047483 -0.012,6.048351 0.81917,11.090243 1.38205,8.388825 4.343,16.436283 7.2466,24.398193 2.89436,7.17442 2.34572,5.96988 5.43509,13.01338 2.62119,5.97613 5.67287,11.89374 6.73411,18.39088 z" />
    <path
       style="fill:#9c008f;fill-opacity:1;stroke-width:0.356424"
       id="path49"
       d="m 281.30185,140.79534 c -0.7071,0.007 -1.44452,-0.1793 -2.12133,0.0235 -2.80952,0.84061 -3.84449,3.74908 -3.03466,6.36805 0.78823,2.54901 2.15015,3.39741 3.99176,5.15727 2.13963,0.95019 4.13447,2.32368 6.41888,2.85054 1.08629,0.25052 2.23667,-0.24527 3.2887,-0.6117 4.51649,-1.57316 7.21972,-5.37328 9.40645,-9.30778 1.53133,-3.71043 2.2345,-8.56286 -0.83377,-11.78602 -0.47164,-0.49544 -1.0841,-0.83865 -1.62613,-1.25794 -2.10289,-1.06836 -5.4277,-4.00077 -8.40133,-2.70525 -0.61638,0.26855 -0.86179,1.02324 -1.29267,1.53484 0,0 0.85371,0.58722 0.85371,0.58722 v 0 c 1.35432,0.1509 2.70259,0.37087 4.06298,0.45291 3.76829,0.22728 2.8793,0.17912 0.64792,-1.48705 0.56434,0.38209 1.19139,0.68661 1.69302,1.14623 3.23642,2.96539 2.67578,7.78768 1.23631,11.4409 -2.06746,3.84186 -4.66425,7.60535 -9.08961,9.06871 -1.00045,0.33085 -2.21167,-0.0237 -3.1245,0.49895 -0.3299,0.18897 0.27388,0.70314 0.41085,1.0547 -1.93151,-1.71491 -3.24986,-2.47594 -4.23509,-4.96811 -0.9173,-2.32033 -0.39716,-5.25516 2.29014,-6.1314 0.63434,-0.20685 1.33569,-0.0277 2.00355,-0.0417 z" />
    <path
       style="fill:#9c008f;fill-opacity:1;stroke-width:0.356424"
       id="path50"
       d="m 231.77976,153.19198 c 1.06482,-3.65596 2.26206,-7.27459 3.70095,-10.80397 -0.0232,-0.007 1.17994,-2.76353 1.16409,-2.76881 -3.8855,-1.29007 -3.19948,-1.61979 -4.05377,0.80521 -0.39121,0.82901 -1.38844,3.0512 -1.93836,3.75067 -0.43726,0.55625 -1.20316,0.83235 -1.56678,1.43813 -0.32453,0.5407 -0.26856,1.22892 -0.40284,1.84339 0,0 0.75614,0.47792 0.75614,0.47792 v 0 c 0.96429,-0.11522 1.99961,0.0311 2.89286,-0.34574 2.01187,-0.84895 2.59028,-3.71435 3.56095,-5.35972 0.98097,-2.68959 1.14936,-1.64751 -2.52719,-4.40407 -0.11772,-0.0883 -0.0926,0.27734 -0.13443,0.41731 -0.24795,0.82769 -0.48763,1.65811 -0.82114,2.45826 -1.313,3.60494 -2.43411,7.27506 -3.45258,10.97131 z" />
    <path
       style="fill:#9c008f;fill-opacity:1;stroke-width:0.356424"
       id="path51"
       d="m 1245.3547,192.95549 c -5.2732,-7.29692 -7.568,-16.27651 -9.4436,-24.91739 -2.1699,-12.73988 -3.0144,-25.67137 -3.567,-38.56633 0.1204,-6.33155 0.5143,-12.73297 2.0348,-18.91193 0.4061,-1.65065 0.7544,-3.35014 1.5268,-4.86781 1.8568,-3.64832 3.8103,-4.7139 6.8785,-7.211756 5.1929,-2.67625 7.1186,-4.273659 12.9118,-1.945828 0.2316,0.09303 0.1616,0.479981 0.3226,0.668988 5.5733,6.543406 1.6844,0.886379 6.2867,8.326096 5.5792,11.04978 4.7744,22.70096 4.1093,34.64869 -0.2891,7.72297 -1.654,15.44438 -1.3948,23.19037 0.119,3.56638 0.4307,4.47733 1.096,7.85232 0.4451,1.07453 0.7635,2.20931 1.3356,3.2236 2.9271,5.19061 10.5403,8.62378 16.2755,8.98492 1.5379,0.0971 3.0816,-0.0466 4.6223,-0.07 4.3838,-0.58936 9.009,-1.39169 12.9333,-3.56749 4.5459,-2.52051 7.9329,-6.56069 11.3503,-10.32694 1.2484,-1.55752 2.5279,-3.09119 3.7454,-4.67255 5.5807,-7.24962 1.6317,-2.43476 7.0873,-9.81252 5.0818,-6.87214 10.485,-13.52173 15.6626,-20.32414 6.9812,-9.65088 14.2892,-19.15053 23.5269,-26.8284 5.1686,-4.29604 7.0402,-5.22751 12.5877,-8.708587 5.1887,-2.673133 14.8544,-8.301149 21.0836,-6.680742 0.8292,0.215684 1.5374,0.750697 2.306,1.12605 -0.7418,-0.131823 -1.8436,-1.037453 -2.2258,-0.395455 -0.4782,0.80335 0.7361,1.736285 0.8794,2.657406 0.1835,1.177492 0.2406,2.3908 0.09,3.572902 -0.7485,5.902776 -3.6103,11.141086 -6.3299,16.321826 -7.529,11.72894 -17.5146,21.63778 -26.6123,32.15803 -5.7837,7.10619 -11.2794,14.46347 -15.6235,22.52329 -0.4303,0.95301 -0.9859,1.85997 -1.2912,2.859 -2.6651,8.72154 1.2911,20.47207 3.7458,28.84167 5.2523,16.91257 13.1482,32.81631 20.009,49.10895 2.6335,7.22069 6.9749,15.60869 4.2619,23.48201 -0.3496,1.01416 -0.9752,1.91385 -1.4628,2.87077 -0.7056,0.73152 -1.2916,1.59765 -2.1171,2.19455 -2.5549,1.84772 -6.299,2.20259 -9.2523,1.1865 -3.7808,-1.30072 -3.3648,-0.77353 -3.8567,-2.97843 -8.7422,-8.40892 -15.7894,-18.32209 -22.1581,-28.55084 -4.4161,-7.6279 -8.3911,-15.51269 -13.4796,-22.73762 -2.5659,-3.259 -5.9852,-5.31577 -9.9645,-6.74315 -1.3325,-0.47792 -3.8343,0.29722 -5.0103,0.55784 -0.9729,0.46477 -2.018,0.80432 -2.9188,1.39426 -6.252,4.09507 -9.221,11.42235 -11.6979,18.0532 -3.4931,12.12409 -4.274,24.78314 -4.5667,37.3215 0.4324,11.45327 -1.0585,21.82282 -5.9237,32.31862 -0.8692,1.87535 -1.9412,3.65239 -2.9119,5.47858 -1.3897,1.44125 -2.5168,3.18481 -4.1691,4.32372 -4.749,3.27303 -11.1936,3.56853 -16.2688,0.93966 -0.3606,-0.1868 -0.1623,-0.79469 -0.3265,-1.16268 -0.8406,-1.88314 -1.7881,-3.71792 -2.682,-5.57688 -3.4631,-15.02526 0.8012,-29.86787 5.3308,-44.17479 3.9911,-11.21209 7.0602,-21.97183 7.2198,-33.90886 -0.2501,-1.18897 -0.3477,-2.41941 -0.7498,-3.56689 -1.6866,-4.81247 -6.5151,-6.93379 -11.1125,-8.47514 -2.4996,-0.83803 -6.3822,-0.2032 -8.8443,0.0198 -1.7519,0.43628 -3.528,0.78659 -5.2556,1.30887 -3.6864,1.11451 -10.808,3.82561 -14.2594,5.12513 -7.3013,2.74901 -14.5768,5.52693 -21.9347,8.12562 -10.9076,3.75069 -22.3994,5.22117 -33.9238,4.76666 -2.1696,-0.0857 -4.3286,-0.34353 -6.4928,-0.51532 -5.7126,-0.53122 -11.0807,-1.89686 -16.179,-4.50121 -0.1379,-0.0705 -0.111,-0.29919 -0.2253,-0.40262 -5.2371,-4.72521 -1.4774,-0.66405 -5.7438,-5.62404 -0.5492,-1.00904 -1.2339,-1.95684 -1.6475,-3.02713 -2.4483,-6.33501 0.9695,-11.98996 4.3936,-17.10688 5.7724,-7.55577 13.6609,-12.87205 22.5054,-16.3893 2.1233,-0.84438 4.3314,-1.46342 6.497,-2.19513 12.0692,-3.20332 24.5594,-4.22764 37.0136,-4.17443 6.3478,0.0396 12.3442,1.67653 17.878,4.66834 -0.9115,-0.49235 -1.7945,-1.03992 -2.7344,-1.47703 -0.3809,-0.1771 0.6871,0.48205 1.0496,0.69354 2.1403,1.24902 4.7399,3.75071 7.4999,2.99302 1.7807,-1.06308 2.831,-2.96703 3.7296,-4.76268 0.687,-1.31754 1.1245,-2.68964 1.1882,-4.16803 -0.1,-0.71713 0.053,-2.73387 -0.3757,-3.28448 -0.514,-0.66054 -1.2322,-1.13779 -1.8484,-1.70671 0,0 -1.066,-0.50827 -1.066,-0.50827 v 0 c -0.4806,0.0413 -1.0637,-0.17238 -1.442,0.12366 -0.019,0.0152 0.694,2.87774 0.4157,3.18907 -0.011,1.42093 -0.3981,2.7351 -1.062,4.00109 -0.8204,1.65486 -1.7738,3.52518 -3.49,4.40156 -1.2729,0.16364 -2.4969,-0.55355 -2.2439,-0.39074 1.0194,0.65603 2.0753,1.25708 3.1428,1.8341 0.3746,0.20246 -0.7074,-0.47255 -1.0613,-0.70884 -1.7974,-1.05403 -3.5947,-2.10809 -5.3923,-3.16214 -5.5714,-2.88052 -11.5794,-4.41571 -17.9043,-4.40371 -12.4628,0.03 -24.9567,1.11367 -37.0245,4.34893 -2.1783,0.74285 -4.3993,1.37293 -6.5347,2.2286 -8.9145,3.57213 -16.8709,8.93807 -22.7008,16.55805 -3.5188,5.22565 -7.0055,11.01912 -4.6487,17.52396 0.3989,1.10043 1.0788,2.08055 1.6184,3.12083 0.8167,0.9791 1.5506,2.03176 2.4501,2.93735 4.2288,4.25756 10.5176,7.86243 16.2293,9.79529 3.9996,1.3535 7.1676,1.61407 11.3455,2.22589 2.1686,0.16042 4.3322,0.40599 6.5055,0.48125 11.5503,0.40008 23.0618,-1.10449 33.9749,-4.9174 7.3419,-2.62097 14.6047,-5.41983 21.9038,-8.15381 3.7284,-1.39651 10.3351,-3.89119 14.2823,-5.04704 1.7178,-0.50299 3.4835,-0.82961 5.2253,-1.24443 1.5213,-0.11485 3.0385,-0.37088 4.5641,-0.34411 1.405,0.0246 2.7919,0.67694 4.1853,0.49763 0.361,-0.0464 -0.7833,-1.14921 -0.4641,-0.97644 3.1552,1.70776 4.1974,4.99972 4.7567,8.24455 0,1.41377 0.064,2.8296 -0.014,4.24138 -0.554,10.20588 -3.8501,19.97137 -7.0504,29.60292 -4.5301,14.39944 -8.8133,29.29469 -5.5313,44.43293 0.8553,1.91642 1.1226,4.21495 2.5657,5.74922 6.275,6.67168 16.5852,9.81485 24.5779,4.17367 1.6713,-1.1796 2.8144,-2.95639 4.2216,-4.43459 0.9704,-1.84357 2.0406,-3.63899 2.911,-5.53072 4.7928,-10.41962 6.4942,-21.08758 5.9692,-32.47139 0.2446,-12.49651 0.9942,-25.11802 4.4899,-37.19869 2.4299,-6.50986 5.3289,-13.81042 11.5605,-17.73962 0.888,-0.56002 1.916,-0.86639 2.8739,-1.29959 0.8829,-0.16651 1.7522,-0.43726 2.6488,-0.49972 0.7465,-0.0518 2.1895,0.89706 2.2397,0.15924 0.06,-0.87095 -1.5637,-0.88069 -2.1462,-1.53702 -0.3942,-0.44425 1.0721,0.53377 1.5595,0.87609 1.3323,0.93575 1.8557,1.69216 2.9396,2.92429 5.1836,7.19106 9.1926,15.09005 13.5903,22.75554 6.3397,10.24269 13.3424,20.16222 22.0069,28.64355 5.8073,4.06978 13.611,11.40163 21.1272,5.77712 0.8497,-0.63576 1.4556,-1.53854 2.1834,-2.30781 0.5052,-0.99232 1.1514,-1.92612 1.5156,-2.97698 2.7683,-7.98712 -1.5451,-16.46536 -4.2743,-23.78416 -6.888,-16.27183 -14.8246,-32.15192 -20.0398,-49.06821 -2.3861,-8.23624 -6.345,-19.92506 -3.7625,-28.50342 0.2982,-0.99083 0.8422,-1.89261 1.2632,-2.83891 4.2795,-8.05437 9.7272,-15.40994 15.4873,-22.49013 9.0767,-10.57817 19.0616,-20.52654 26.631,-32.26108 3.1062,-5.88357 7.3662,-13.19793 6.5123,-20.136893 -0.1188,-0.969185 -0.1304,-2.09517 -0.7886,-2.823442 -1.533,-1.696267 -3.6638,-2.753557 -5.4957,-4.13033 -0.798,-0.329605 -1.5479,-0.811757 -2.3939,-0.988798 -6.4542,-1.350425 -15.7593,4.200832 -21.1162,6.996045 -5.5365,3.518618 -7.4241,4.478728 -12.5872,8.798428 -9.2282,7.72044 -16.556,17.23392 -23.5465,26.90582 -5.1945,6.80252 -10.655,13.42006 -15.7697,20.27985 -6.2355,8.36322 -0.7248,1.56613 -7.0764,9.78753 -1.2149,1.57272 -2.4956,3.09494 -3.7434,4.64243 -3.3964,3.7179 -6.7495,7.68263 -11.2692,10.147 -3.9029,2.12802 -8.471,2.91029 -12.824,3.4365 -1.5292,0.001 -3.0637,0.12738 -4.5877,0.003 -1.4118,-0.11518 -2.7709,-0.74486 -4.1873,-0.7184 -0.2952,0.005 0.6454,0.92034 0.3817,0.78945 -3.2428,-1.60934 -5.0534,-4.45423 -6.2304,-7.71493 -0.699,-3.33727 -1.0246,-4.25196 -1.1713,-7.7855 -0.322,-7.75117 1.0165,-15.48834 1.3045,-23.21601 0.672,-12.16629 1.5673,-23.57051 -3.9958,-34.8788 -4.18,-6.9444 -6.0174,-9.511391 -14.023,-13.338816 -1.3852,-0.66229 -2.9566,-1.05399 -4.4955,-1.038228 -2.9926,0.0307 -6.1256,2.062036 -8.6003,3.348261 -3.1431,2.610044 -5.0652,3.666192 -6.9576,7.448183 -0.7701,1.53938 -1.1127,3.25888 -1.5136,4.92978 -1.4943,6.22774 -1.8722,12.67545 -1.9688,19.04922 0.6055,12.97 1.5486,25.9691 3.8307,38.7692 2.0255,8.81526 4.4715,17.96508 9.986,25.34731 z" />
    <path
       style="fill:#859c00;fill-opacity:1;stroke-width:0.356424"
       id="path52"
       d="m 1283.5856,207.02641 c 4.4337,3.36682 9.6452,7.18383 15.5009,7.13212 0.7735,-0.007 1.5354,-0.187 2.3031,-0.28046 3.0896,-0.84147 6.246,-2.44604 4.1242,-5.92105 -4.4497,-3.08844 -8.8271,-4.66068 -14.1284,-3.40199 0.022,0.45896 0.045,0.9179 0.067,1.37681 0,0 0.8519,0.56636 0.8519,0.56636 v 0 c 0.8578,0.14856 1.7158,0.29724 2.5737,0.44585 2.366,-0.51857 4.597,-0.55191 6.9657,0.0678 0.6375,0.16668 1.9727,1.26935 1.8746,0.62507 -0.1177,-0.77343 -1.3182,-0.86649 -1.9775,-1.29974 2.5289,3.05076 -0.7219,4.58129 -3.5126,5.32952 -2.1335,0.25715 -2.3987,0.4526 -4.6023,0.0136 -0.8818,-0.17619 -1.6941,-0.67054 -2.59,-0.75063 -0.2327,-0.0207 0.6282,0.65327 0.4163,0.55631 -1.8125,-0.82954 -3.0781,-1.93836 -4.6201,-3.13192 z" />
    <path
       style="fill:#859c00;fill-opacity:1;stroke-width:0.356424"
       id="path53"
       d="m 981.28744,324.80103 c 1.14812,2.89363 2.01102,6.3085 4.16402,8.69501 2.32338,2.57536 7.48224,4.76488 10.25806,5.60444 1.25867,0.38075 2.62929,0.1345 3.94399,0.20173 1.19819,-0.30715 2.47369,-0.40253 3.59459,-0.92143 4.6976,-2.17431 7.0841,-6.76285 5.5938,-11.73722 -0.3136,-1.047 -0.9965,-1.94932 -1.4947,-2.92397 -1.8999,-2.17038 -7.81846,-6.47857 -10.39686,-4.67183 -0.48194,0.33769 -0.3383,1.1186 -0.50749,1.6779 0,0 0.85132,0.56378 0.85132,0.56378 v 0 c 1.05849,0.0779 2.11421,0.21667 3.17553,0.23363 0.709,0.0136 1.747,0.44563 2.1216,-0.14907 0.097,-0.15482 -5.05723,-4.48409 0.9423,0.6529 0.5345,0.93813 1.2539,1.79473 1.6036,2.81436 1.2522,3.65198 0.528,6.70817 -2.2851,9.31801 -0.8478,0.78642 -1.7614,1.5492 -2.8142,2.03685 -1.07811,0.49928 -2.30785,0.57983 -3.46177,0.86973 -1.2794,-0.0835 -2.55808,-0.32319 -3.8381,-0.2503 -0.2793,0.0169 -0.41187,0.6256 -0.66438,0.50665 -4.55297,-2.14421 -6.25584,-6.84394 -7.90224,-11.17841 z" />
    <path
       style="fill:#859c00;fill-opacity:1;stroke-width:0.356424"
       id="path54"
       d="m 993.50429,293.56302 c -0.079,-2.16386 -0.31151,-6.45164 -0.0246,-8.46382 0.80546,-5.65185 3.15936,-11.30409 6.40265,-16.00282 0.97486,-1.41243 2.17576,-2.65894 3.26356,-3.98841 2.9775,-2.61333 8.4083,-7.48127 12.7177,-4.21798 0.321,0.24306 -1.256,-0.29175 -1.2087,0.10502 0.1271,1.06792 1.0393,1.8897 1.5589,2.83453 2.3612,5.88748 1.6392,12.24585 2.083,18.40492 0.096,1.33032 0.3046,2.65033 0.4568,3.97552 1.2847,6.29176 2.7219,13.34973 7.4176,18.15875 0.972,0.99537 2.1507,1.77098 3.226,2.65645 6.6384,4.7677 14.2174,6.47667 22.0008,8.30118 1.4667,0.3438 2.9775,0.54481 4.396,1.04925 1.4497,0.51554 2.7725,1.32872 4.1587,1.99308 -0.027,2.08985 -0.1496,-0.0959 2.8632,3.58614 1.8524,2.26392 3.8271,5.42948 3.5469,8.49563 -0.079,0.86605 -0.4896,1.67051 -0.7344,2.50575 -0.5593,0.74663 -1.007,1.58942 -1.6783,2.23992 -4.5277,4.38802 -12.2077,6.41686 -18.0259,8.50447 -4.9635,2.01073 -11.3921,3.33117 -14.1962,8.39442 -0.4608,0.83182 -0.7073,1.76298 -1.0609,2.64449 -1.2742,6.67481 -0.9157,13.48026 -1.8601,20.20644 -1.3071,5.02642 -1.8042,11.62179 -6.1478,15.23163 -0.7583,0.63017 -1.6829,1.0342 -2.5243,1.55128 -2.2482,0.6624 -3.4465,1.28178 -5.8535,0.93777 -1.0185,-0.14568 -1.9304,-0.73389 -2.9399,-0.93119 -0.4143,-0.0808 1.4058,0.88769 1.1245,0.57641 -3.0807,-2.52349 -1.675,-1.14239 -4.2247,-4.13524 -2.7701,-3.48846 -3.5137,-8.01924 -5.7076,-11.79449 -0.4071,-0.70047 -0.9245,-1.33235 -1.3867,-1.99851 -5.67048,-6.75311 -12.4179,-7.8801 -20.67494,-8.38421 -8.33255,-0.42344 -16.79836,0.79691 -25.09693,-0.40941 -1.97236,-0.2867 -3.89828,-0.82726 -5.84742,-1.24087 -6.19103,-1.94773 -11.32487,-3.3655 -15.26987,-8.72623 -2.46225,-3.34591 -2.56821,-5.30276 -3.53867,-9.15887 -0.94194,-9.82176 2.93721,-14.72917 9.99463,-20.96024 6.22019,-5.38803 13.79137,-7.82809 21.70307,-9.56651 5.70654,-1.34133 11.69597,-1.36557 17.26588,-3.22797 3.91115,-1.37682 6.60389,-4.19437 8.95883,-7.44108 1.88673,-3.07929 2.72995,-6.5987 3.33082,-10.10983 -0.32988,-0.48044 0.84732,-3.10286 0.68992,-3.42925 -0.30546,-0.6333 -0.90971,-1.07744 -1.36456,-1.61617 0,0 -1.00904,-0.53715 -1.00904,-0.53715 v 0 c -0.57788,-0.0198 -1.19198,-0.25782 -1.73343,-0.0579 -0.18408,0.0681 -0.69106,3.11702 -0.70071,3.48491 -0.53601,3.4583 -1.33507,6.92019 -3.17464,9.9551 -2.28892,3.1836 -4.92687,5.90172 -8.75415,7.23258 -5.55281,1.79329 -11.49148,1.89313 -17.15971,3.24667 -7.95508,1.80339 -15.57165,4.3142 -21.81205,9.76249 -7.16202,6.3725 -11.09469,11.38671 -10.19604,21.38623 0.92934,3.87681 1.0543,5.97818 3.45439,9.37365 4.86766,6.88654 15.00471,10.41286 22.78372,12.98946 1.96393,0.40021 3.90616,0.92366 5.89177,1.20057 8.30944,1.1587 16.76916,-0.0583 25.10883,0.4157 3.41493,0.24586 4.92623,0.20514 8.18245,0.97624 1.05141,0.24898 2.01181,0.99256 3.09256,0.9658 0.63668,-0.0169 -1.88406,-1.57435 -1.61892,-1.00229 0.6498,1.40275 3.10364,1.40562 3.44204,3.13923 0.47189,0.64341 1.00308,1.24819 1.41566,1.93019 2.27291,3.75672 2.93781,8.35363 5.66411,11.89163 0.6229,0.7678 1.1788,1.59377 1.8687,2.30336 2.9282,3.01107 7.5719,6.00595 11.8333,6.45341 2.4918,0.26161 3.6736,-0.3866 5.9822,-1.12641 0.8651,-0.55195 1.8158,-0.9911 2.5955,-1.65574 4.3699,-3.72488 4.908,-10.33321 6.2458,-15.46664 0.9758,-6.72008 0.6387,-13.43868 1.8228,-20.11061 0.3341,-0.85 0.5619,-1.74873 1.0025,-2.55002 2.7315,-4.9672 9.1761,-6.2072 14.0006,-8.21262 5.8891,-2.12285 13.6321,-4.21992 18.1796,-8.70792 0.7005,-0.69137 1.1663,-1.58132 1.7494,-2.372 0.2676,-0.88395 0.7059,-1.73418 0.8029,-2.65187 0.4272,-4.04184 -3.3247,-9.46213 -6.3635,-11.81014 -2.2943,-1.77286 -4.841,-3.2016 -7.2616,-4.8024 -1.4024,-0.64033 -2.7484,-1.41871 -4.2072,-1.92098 -1.4188,-0.48839 -2.9215,-0.69392 -4.3833,-1.03643 -4.9757,-1.16582 -10.0114,-2.3005 -14.7471,-4.22434 -1.0881,-0.85702 -2.2775,-1.60165 -3.2642,-2.57109 -4.7739,-4.69075 -6.2402,-11.73473 -7.5591,-17.97591 -0.1632,-1.31691 -0.3852,-2.62802 -0.4898,-3.95074 -0.4931,-6.2289 0.2203,-12.65782 -2.1206,-18.62634 -0.5119,-0.98819 -0.7375,-2.18349 -1.5359,-2.96456 -1.2039,-1.17759 -5.5198,-4.73971 -8.3196,-4.79286 -4.0088,-0.0761 -7.2924,3.1556 -9.9496,5.59185 -1.07258,1.35882 -2.25584,2.63908 -3.21778,4.07654 -5.12726,7.66161 -7.06108,15.78599 -6.13547,24.86257 z" />
    <path
       style="fill:#859c00;fill-opacity:1;stroke-width:0.356424"
       id="path55"
       d="m 92.397416,302.11272 c -7.859025,-7.36 -15.12008,-16.05229 -18.087013,-26.57516 -0.753903,-2.67377 -0.893859,-5.48046 -1.340783,-8.22069 0.0512,-2.61634 -0.163052,-5.25096 0.153377,-7.84901 0.798331,-6.55453 4.000511,-15.60976 10.931049,-18.25268 1.115766,-0.42549 2.367423,-0.33803 3.551104,-0.50706 2.071865,0.57005 4.991559,1.0893 6.641362,2.67989 0.261411,0.25203 -0.443097,0.71265 -0.295138,1.04257 0.651111,1.45182 1.809325,2.63184 2.570318,4.03049 1.726911,3.17387 2.702721,6.11283 3.972278,9.47632 2.23715,5.85399 4.33315,16.68223 9.93943,20.33279 2.04476,1.33147 4.36034,2.20394 6.54052,3.30591 1.24667,-0.37018 2.57899,-0.52894 3.74004,-1.11059 3.11346,-1.55971 5.91559,-4.53657 8.2747,-6.91405 4.38971,-4.42391 8.58743,-8.99298 13.06781,-13.33224 5.78194,-4.66547 12.58727,-9.74287 20.4438,-9.84942 0.96984,-0.0153 1.92782,0.21325 2.89173,0.31984 0.73926,0.35732 2.09323,0.26822 2.21777,1.07193 0.10581,0.68287 -1.7241,-0.81134 -2.08577,-0.22013 -0.43749,0.71517 0.66208,1.56244 0.75668,2.3928 0.11467,1.00611 0.0377,2.0369 -0.13846,3.03432 -0.49572,2.80895 -1.48347,4.44888 -2.69067,7.03486 -3.00627,5.45645 -7.25809,10.37543 -7.93509,16.80728 -0.42313,4.01995 0.32108,5.41136 1.34519,9.18768 0.6805,1.30447 1.21844,2.69175 2.04146,3.91343 1.78378,2.64786 4.89269,5.70593 7.18676,7.86657 4.06193,3.82564 8.42374,7.35961 12.66463,10.98705 6.5955,5.66173 12.91121,11.39162 16.68959,19.28964 0.19429,0.79223 0.59384,1.56159 0.58303,2.3767 -0.056,4.22039 -7.89418,5.72271 -10.99555,6.10253 -1.46312,0.17929 -2.94501,0.14416 -4.41754,0.21629 -5.54212,-0.59946 -11.49762,-1.8114 -16.06761,-5.22496 -0.21963,-0.16398 1.01152,0.23959 0.82503,0.0395 -0.87429,-0.9381 -2.01325,-1.59632 -3.01989,-2.39453 -4.50283,-3.65059 -8.95385,-7.39454 -14.63851,-9.18121 -2.12903,-0.66913 -4.21189,0.50148 -6.06973,1.19199 -7.3922,4.52066 -12.58943,11.64412 -18.09478,18.13604 -5.9251,7.61345 -13.91102,12.95866 -22.06813,17.96031 -1.40462,0.80607 -3.996401,2.4157 -5.665894,2.96684 -0.635997,0.20995 -2.17282,-0.31541 -1.985296,0.32065 0.240182,0.81478 1.705118,1.52731 2.372636,0.99325 0.615825,-0.49268 -0.723992,-1.41162 -0.893919,-2.17632 -0.232404,-1.0458 -0.20034,-2.13231 -0.300535,-3.19841 0.09778,-7.94369 3.475185,-15.30131 6.371658,-22.56518 0.37668,-1.51997 1.79681,-4.28307 0.58249,-5.87334 -0.43516,-0.56983 -1.10396,-0.95788 -1.76833,-1.23838 -7.311819,-3.08685 -5.512467,-2.57639 -11.855581,-2.55483 -9.905865,0.59409 -19.824073,1.26131 -29.675788,-0.18421 -3.350486,-1.09494 -3.974005,-1.11419 -6.992958,-2.79261 -0.284973,-0.15838 1.126248,0.5484 0.937797,0.28438 -0.639522,-0.89586 -1.665739,-1.46085 -2.377778,-2.30163 -1.82797,-2.15849 -1.873501,-2.82555 -2.897057,-5.34734 -1.268402,-7.04657 3.27438,-9.68911 9.016188,-12.34056 8.535586,-2.90837 17.678211,-2.59932 26.573348,-3.20081 0.775892,-0.4785 1.551742,-0.95694 2.327612,-1.43543 0,0 -0.815692,-0.57025 -0.815692,-0.57025 v 0 c -1.691163,-0.1713 -3.382337,-0.34276 -5.073511,-0.51412 -8.934825,0.61037 -18.1213,0.34691 -26.677891,3.32522 -5.9434,2.78691 -10.520908,5.63805 -9.349151,12.90444 0.360252,0.93891 0.619607,1.92193 1.080757,2.81675 3.383035,6.56421 10.967648,9.68421 17.715136,11.73564 9.859742,1.34234 19.767648,0.64074 29.672343,0.10858 1.530451,0.0183 3.060932,0.0354 4.591393,0.053 -0.08732,-0.51182 -0.753739,-1.3535 -0.26174,-1.5355 3.105361,-1.14881 2.541404,5.75083 1.478686,6.58529 -2.867231,7.33819 -6.242765,14.75189 -6.455643,22.73887 0.04853,0.71118 0.0671,4.8518 0.992237,5.69056 5.70722,5.17468 7.564072,2.63507 12.924203,-0.40873 8.16405,-5.06021 16.17636,-10.44216 22.12836,-18.07982 5.45889,-6.43563 10.62319,-13.52859 18.01625,-17.92046 1.00887,-0.34147 1.97411,-0.85455 3.0266,-1.02437 0.94912,-0.15314 2.05477,0.55146 2.88423,0.0706 0.44231,-0.25639 -1.45155,-1.34845 -0.96726,-1.1819 0.95009,0.32681 1.66546,1.11611 2.47835,1.70166 2.42881,1.74959 3.36782,2.5581 5.73689,4.46209 7.74257,6.20706 15.54742,11.00336 25.69312,11.60883 1.4846,-0.0893 2.97991,-0.071 4.45384,-0.26792 3.45652,-0.46195 11.20995,-2.11107 11.35684,-6.67196 0.0272,-0.84339 -0.38158,-1.64495 -0.57235,-2.46744 -3.81012,-8.13627 -9.97859,-13.657 -16.71669,-19.49036 -4.24128,-3.62799 -8.60466,-7.15752 -12.68537,-10.96387 -2.22226,-2.07285 -5.44246,-5.20645 -7.20519,-7.74016 -0.83285,-1.19711 -1.39279,-2.55869 -2.0892,-3.83805 -1.06123,-3.67882 -1.83304,-5.07508 -1.45273,-9.01114 0.61968,-6.41394 4.93308,-11.29361 7.90612,-16.72897 1.52975,-3.24642 3.3161,-6.58573 3.00399,-10.31177 -0.073,-0.87193 -0.10944,-1.87421 -0.69022,-2.53465 -2.94572,-3.34939 -4.10947,-3.59251 -7.32335,-4.92996 -0.9752,-0.0769 -1.94807,-0.26873 -2.92561,-0.23066 -7.89643,0.3074 -14.68151,5.38229 -20.4931,10.12991 -4.45821,4.35231 -8.64199,8.94154 -13.0469,13.34153 -2.27332,2.27076 -5.16302,5.28106 -8.21396,6.71652 -1.10946,0.52201 -2.38205,0.59778 -3.57308,0.89669 0.64631,1.3002 1.87052,3.56339 -2.47874,-1.96893 -2.88137,-3.66518 -4.26466,-8.46358 -5.71696,-12.78022 -0.53862,-1.60093 -1.07573,-3.20236 -1.61359,-4.80352 -1.34781,-3.59036 -3.80676,-10.91272 -6.49102,-13.6612 -1.788558,-1.83139 -6.326728,-5.36703 -9.428395,-6.49695 -1.141325,-0.4158 -2.369239,-0.54625 -3.553854,-0.81937 -1.194188,0.22337 -2.464582,0.19899 -3.582553,0.67006 -6.926023,2.91847 -10.071913,11.98469 -10.860456,18.6882 -0.30862,2.62355 -0.09409,5.28159 -0.141289,7.9224 0.456569,2.77201 0.605051,5.6111 1.369696,8.31607 3.018997,10.67972 10.466436,19.45338 18.477565,26.87955 z" />
    <path
       style="fill:#859c00;fill-opacity:1;stroke-width:0.356424"
       id="path56"
       d="m 121.30535,302.28781 c -3.86103,3.63011 -6.17417,8.97158 -4.16988,14.17076 0.28497,0.73925 0.79112,1.37556 1.18668,2.06334 1.5979,0.91665 3.04026,2.17427 4.7937,2.74996 0.67628,0.22203 1.4763,-0.11739 2.07871,-0.49361 2.59544,-1.62049 3.98223,-5.42344 4.28281,-8.25611 0.11267,-1.06093 -0.0687,-2.13239 -0.1032,-3.19856 -0.85333,-3.86044 -5.77475,-7.79942 -9.41924,-4.53483 -0.84155,0.75382 -1.11727,1.95441 -1.67591,2.9316 0,0 0.74391,0.46728 0.74391,0.46728 v 0 c 1.40347,-0.40737 2.81469,-0.78947 4.2104,-1.22207 0.93665,-0.29033 2.16693,-0.19254 2.78493,-0.94618 0.32811,-0.40006 -1.2291,-1.4144 -1.27003,-0.90108 -0.0719,0.90352 0.76315,1.64842 1.14473,2.47261 0.2217,3.64516 0.21616,6.03147 -1.95487,9.21785 -0.48519,0.71214 -1.03265,1.43912 -1.77397,1.88694 -0.54433,0.32876 -1.60922,-0.24436 -1.88574,0.32371 -0.2287,0.4698 0.85379,0.61284 1.2807,0.91924 -0.43027,-0.66692 -0.97273,-1.275 -1.29084,-2.00075 -2.20613,-5.03337 -0.0657,-10.35349 3.61334,-14.026 z" />
    <path
       style="fill:#859c00;fill-opacity:1;stroke-width:0.356424"
       id="path57"
       d="m 817.63609,18.003126 c 5.65739,7.311937 6.89566,15.079347 4.59875,24.021633 -0.63292,2.46403 -1.67238,4.80831 -2.50855,7.212463 -5.28359,11.448824 -12.57944,21.810711 -18.56192,32.89074 -4.0614,7.522034 -4.12947,8.095701 -7.4649,15.728665 -2.20785,6.239523 -6.54067,17.264983 -3.17003,23.803313 1.90196,3.68934 5.89758,4.12471 9.46404,5.56049 1.48283,-0.35512 3.03899,-0.48814 4.44851,-1.06534 9.31993,-3.81653 17.74903,-15.42862 23.6914,-23.1678 4.9371,-6.685398 9.86058,-13.431497 15.53301,-19.540847 3.23107,-3.479986 4.38458,-4.382251 7.84218,-7.489811 3.8594,-2.927531 7.99394,-6.909875 13.24954,-6.638877 3.09031,0.15935 4.0837,0.966556 6.83263,2.261538 -0.0657,0.124523 -0.29048,0.267262 -0.19751,0.373592 5.47294,6.260033 0.68471,-0.668533 5.82362,6.130052 3.19945,4.232772 5.19987,8.870296 7.23464,13.713956 2.77862,7.290041 4.77468,14.866257 8.54236,21.754927 2.46605,4.50886 3.03495,4.95114 6.06167,8.89202 4.91241,4.87159 11.13824,9.09975 18.29328,6.82 3.97975,-1.26802 4.62447,-2.38162 7.83083,-5.07507 5.89404,-6.14918 9.4527,-14.08927 10.67758,-22.45077 0.23454,-1.60121 0.2863,-3.223393 0.42944,-4.835099 0.38632,-9.236281 -2.04325,-18.19576 -3.60019,-27.21563 -0.79333,-9.779274 2.929,-14.050579 10.62489,-19.381329 7.41489,-4.267347 15.36116,-7.492432 22.91451,-11.513313 4.79366,-2.66563 9.53689,-5.597787 13.17976,-9.745173 1.90478,-2.16862 2.35087,-3.158362 3.78285,-5.566897 3.41845,-7.172752 1.00678,-9.426003 -5.10527,-13.472977 -6.46591,-4.1989445 -13.62253,-6.7754164 -21.1006,-8.4957425 -3.2644,-0.69186409 -6.42474,-0.020424 -9.50832,1.033404 0.15592,0.4233802 0.31215,0.8467605 0.46826,1.2701408 0,0 0.89774,0.5966466 0.89774,0.5966466 v 0 c 0.76662,0.1953533 1.53324,0.3906994 2.29986,0.5860454 3.03146,-1.017899 6.13179,-1.5911025 9.32048,-0.8666467 3.7756,0.881227 7.48682,1.9430014 11.08,3.4072668 1.06997,0.4360347 2.08222,1.0083719 3.16835,1.403611 0.25183,0.09165 -0.42638,-0.3222342 -0.63955,-0.4833504 2.33298,1.4855551 5.39633,3.099778 6.57687,5.785711 1.06486,2.422808 -0.26685,4.920732 -1.18555,7.106807 -1.39826,2.372748 -1.83538,3.355602 -3.70593,5.488247 -3.61062,4.116575 -8.33526,7.007918 -13.08537,9.655829 -7.57756,4.013037 -15.55788,7.218465 -22.9611,11.544179 -7.78203,5.449417 -11.59463,9.884762 -10.84595,19.802543 1.56702,9.000105 4.04282,17.928648 3.70531,27.14885 -0.13479,1.598682 -0.17877,3.20738 -0.40436,4.796028 -1.17559,8.277509 -4.66175,16.153489 -10.51412,22.223129 -3.7453,3.09024 -6.45231,5.49791 -11.66749,5.47738 -1.2747,-0.004 -2.50726,-0.46302 -3.77117,-0.62691 -0.0481,-0.005 0.0656,0.17256 0.0283,0.14161 -1.15742,-0.96313 -2.2751,-1.97188 -3.41267,-2.95781 -3.08812,-3.93389 -3.62885,-4.31944 -6.14329,-8.83947 -3.82144,-6.86964 -5.84022,-14.44763 -8.5975,-21.752125 -2.58446,-6.240118 -5.28444,-12.102988 -9.95851,-17.123783 -0.95133,-1.021904 -1.88691,-2.08145 -3.00864,-2.91785 -2.118,-1.579324 -4.44496,-2.86478 -6.66743,-4.297171 -2.80973,-1.235465 -3.83236,-2.027188 -6.96383,-2.089937 -5.2995,-0.106245 -9.43794,3.896865 -13.32158,6.887997 -3.44191,3.121373 -4.62163,4.0585 -7.83973,7.545944 -5.65705,6.130564 -10.57584,12.884154 -15.48508,19.596795 -5.82202,7.61969 -14.31288,19.34817 -23.5726,22.9271 -1.38305,0.53455 -2.90639,0.605 -4.35958,0.90749 -0.53395,1.7645 -0.48704,2.67883 -2.91046,-1.59945 -3.57513,-6.31152 0.69956,-17.59118 2.8211,-23.702768 3.28491,-7.675611 3.31802,-8.18772 7.3454,-15.753673 5.92636,-11.133358 13.19715,-21.537355 18.44266,-33.025708 1.94743,-5.638178 3.30913,-8.212153 3.60338,-14.149389 0.32332,-6.52419 -2.0195,-12.498743 -6.02439,-17.577557 z" />
    <path
       style="fill:#ff6600;fill-opacity:1;stroke-width:0.356424"
       id="path58"
       d="m 882.48701,20.656114 c -0.98739,0.461456 -2.11278,0.705864 -2.9622,1.384371 -3.5892,2.867187 -9.0712,11.57666 -3.69842,15.434351 1.99305,1.431032 4.48448,2.017626 6.72668,3.026438 1.53781,-0.241809 3.14825,-0.204488 4.61341,-0.72543 4.12613,-1.46706 8.04105,-5.265814 8.34397,-9.807777 0.0756,-1.131887 -0.006,-2.443199 -0.7256,-3.326654 -0.92058,-1.129315 -2.52692,-1.475589 -3.7904,-2.213383 0,0 -0.76253,-0.292585 -0.76253,-0.292585 v 0 c 0.44218,0.32529 1.07209,0.49269 1.32654,0.975869 1.98799,3.774902 0,7.890654 -3.05548,10.429371 -3.35166,2.786345 -4.50337,2.376639 -8.58447,2.931161 -1.87467,0.551383 -2.37255,1.058172 -3.32945,-2.821223 -1.00829,-4.087918 2.35553,-9.527138 5.28552,-12.08312 0.78618,-0.685805 1.8515,-0.973801 2.77723,-1.460702 z" />
    <path
       style="fill:#ff6600;fill-opacity:1;stroke-width:0.356424"
       id="path59"
       d="m 502.27033,226.45783 c -6.07281,-5.76322 -10.434,-13.06928 -12.74521,-21.08508 -0.78191,-2.71197 -1.23213,-5.50678 -1.84819,-8.26019 -2.80115,-16.98809 -1.85776,-34.32398 2.40342,-51.00099 0.79116,-3.09639 1.84884,-6.12029 2.77329,-9.18043 3.2214,-6.99209 8.07977,-16.9266 17.48926,-16.6142 3.98348,0.13227 3.72854,0.14236 4.8422,2.00146 0.90268,1.18905 1.98145,2.26568 2.70811,3.56714 2.59631,4.65003 2.81905,10.15397 3.09117,15.30725 0.25551,4.83827 0.41963,9.68092 0.67277,14.5193 0.73598,7.21132 1.92236,14.44605 4.40189,21.29846 0.65375,1.80668 1.17175,3.7292 2.30835,5.28494 3.14599,4.30614 8.73178,5.67803 13.27754,7.66494 15.2062,2.01875 25.66707,-2.65716 38.37583,-10.13503 11.49378,-7.52162 22.04159,-16.31709 33.34951,-24.09305 3.49183,-1.99997 7.0837,-4.7994 11.29877,-5.11838 1.00913,-0.0763 2.01051,0.2332 3.01821,0.32627 0.30054,0.0277 -0.98762,-0.41437 -0.89586,-0.13034 0.35368,1.09499 1.20446,1.9668 1.8067,2.95023 0.25595,1.24053 0.78406,2.4556 0.76782,3.72151 -0.12943,10.08609 -10.41485,21.9026 -16.4489,29.27933 -5.92102,7.43325 -14.88764,14.39852 -17.25789,24.02374 -0.34064,1.38342 -0.33071,2.82875 -0.49608,4.24317 0.1595,1.41469 0.1814,2.85125 0.47848,4.24409 2.01537,9.44921 9.98186,16.71232 16.49124,23.31086 6.6532,6.59907 13.40377,13.10033 19.96735,19.78747 4.98818,5.08206 8.22723,8.23249 12.46255,13.97423 1.81027,2.45408 3.34761,5.09372 5.02142,7.64059 3.57029,6.9236 9.77064,15.45462 6.81486,23.75875 -1.31484,3.6941 -3.02365,4.35537 -5.96366,6.66326 -1.60852,0.58162 -3.15745,1.36034 -4.82547,1.74493 -8.97433,2.06915 -17.68772,-1.16846 -25.28113,-5.73091 -1.24867,-0.75023 -2.30135,-1.78028 -3.45203,-2.67043 -13.26438,-9.5654 -20.17398,-21.54215 -27.14784,-35.77775 -2.89469,-4.79353 -4.44525,-11.82876 -8.44946,-15.88901 -2.36544,-2.39854 -6.40553,-3.69936 -9.14496,-4.97454 -6.37368,-0.62249 -13.08879,1.29451 -18.61855,4.44025 -1.29285,0.7355 -2.46951,1.6544 -3.70431,2.48158 -5.50232,4.62082 -9.40865,10.64226 -13.4261,16.48199 -4.20549,6.11315 -3.1011,4.50787 -7.52412,10.71814 -7.51551,10.22429 -14.63869,20.74248 -22.57838,30.65409 -1.18429,1.27548 -2.25697,2.66171 -3.55286,3.82647 -4.99342,4.48811 -11.95992,7.65421 -18.66313,8.52665 -1.37926,0.17948 -2.78133,0.0742 -4.172,0.11163 -1.16382,-0.31768 -2.35815,-0.5416 -3.49148,-0.953 -0.34712,-0.12603 1.21728,0.4353 1.10574,0.0871 -0.38607,-1.20591 -1.53856,-2.0409 -2.09591,-3.17956 -1.06541,-2.17668 -2.19745,-6.36556 -2.36435,-8.72607 -0.133,-1.8798 0.11528,-3.76704 0.17293,-5.65055 1.06438,-6.62066 3.6839,-12.77391 6.59041,-18.77774 2.40339,-4.96441 3.5259,-6.3284 5.44494,-11.52028 0.68255,-1.84663 1.13844,-3.76749 1.70763,-5.65124 1.17489,-5.37596 1.34188,-11.41398 -3.12347,-15.45728 -2.07287,-1.87698 -8.58173,-4.75109 -9.87831,-5.39637 -10.66817,-2.23299 -21.05726,-5.22151 -31.09908,-9.42409 -1.64403,-0.88543 -3.36523,-1.64343 -4.93212,-2.65621 -0.3103,-0.2006 -0.367,-0.64135 -0.60461,-0.92263 -1.23622,-1.46366 -2.70329,-2.74375 -3.81055,-4.30487 -2.12211,-2.99193 -3.79396,-6.81924 -4.60453,-10.38305 -0.39456,-1.73473 -0.427,-3.53085 -0.64048,-5.29629 0.45064,-4.27799 0.67828,-9.416 3.87508,-12.79944 3.16898,-3.35408 8.17312,-3.78485 12.42591,-4.46997 12.17463,-0.49166 24.08391,3.00741 35.52825,6.75271 3.79982,1.34953 7.5359,2.88244 11.14318,4.67775 0.79198,0.39418 1.5177,0.92683 2.34641,1.23877 0.74728,0.28132 -1.34416,-0.88807 -2.10005,-1.14601 -0.50335,-0.17165 0.88343,0.58773 1.32517,0.88158 1.23002,0.8463 2.35347,1.83102 2.9307,3.22071 0.74416,2.33835 -2.30928,-0.36885 5.00752,2.70037 1.21327,-1.25072 0.92635,-0.46156 -0.22773,-2.50543 0,0 -0.98116,-0.56414 -0.98116,-0.56414 v 0 c -2.28813,-0.12061 -1.51588,-0.55701 -2.62658,0.46689 2.54175,2.02085 3.49498,3.8632 3.03931,1.8395 -0.51124,-1.50478 -1.58786,-2.60717 -2.8937,-3.51032 -6.28569,-4.29479 -13.27386,-7.44358 -20.44957,-9.97359 -9.80444,-3.16494 -20.02462,-6.22284 -30.39973,-6.74324 -1.76195,-0.0884 -3.52726,0.0905 -5.29088,0.13535 -4.41274,0.74795 -9.41877,1.26496 -12.66768,4.77274 -3.22906,3.48631 -3.48273,8.69545 -3.97059,13.07585 0.20366,1.79295 0.22525,3.61535 0.61089,5.37884 0.78673,3.59778 2.44542,7.49706 4.53605,10.54298 4.15652,6.05581 10.5613,9.00858 16.91309,12.30581 5.09413,2.10458 5.68455,2.46737 10.99447,4.17293 6.62446,2.1278 13.44362,3.49705 20.15898,5.29304 -0.23668,-0.29231 -1.05987,-1.02037 -0.70991,-0.87695 2.03719,0.83514 3.94307,2.41945 5.10688,4.27418 1.43043,2.27981 2.01163,4.88415 1.93911,7.55411 -0.0464,1.70266 -0.49271,3.37158 -0.7391,5.05739 -0.55575,1.87162 -0.99457,3.78108 -1.66728,5.61484 -1.82639,4.97874 -3.12729,6.75419 -5.42881,11.51933 -2.92315,6.05232 -5.5691,12.25086 -6.70468,18.90875 -0.0826,1.90728 -0.35985,3.81606 -0.24766,5.72186 0.0932,1.58424 0.46693,3.14563 0.86006,4.6843 1.89219,7.40606 5.59641,11.11654 13.61023,12.59099 1.40006,-0.065 2.81354,0.007 4.20015,-0.19492 6.76206,-0.9849 13.74894,-4.20447 18.78393,-8.76313 1.29853,-1.17569 2.37118,-2.57379 3.55683,-3.86069 7.91791,-9.93561 15.00228,-20.48856 22.546,-30.70018 3.824,-5.3445 3.90602,-5.41326 7.56599,-10.70359 4.00223,-5.78511 7.85514,-11.78278 13.3599,-16.32682 1.22195,-0.80931 2.38714,-1.70927 3.66581,-2.42797 5.44649,-3.06125 12.17494,-4.98128 18.43193,-4.15876 -0.29548,-0.38988 -1.35001,-1.33557 -0.88649,-1.16966 4.36041,1.56042 6.85203,8.75072 8.6116,12.4191 0.8293,1.72892 1.65959,3.45739 2.48937,5.18614 4.31821,8.80909 8.7601,17.69283 15.26804,25.18054 3.95205,4.54705 7.23462,6.95952 11.87493,10.83214 10.76473,6.86686 22.49165,15.61519 36.15858,12.25994 1.69794,-0.41683 3.26719,-1.23781 4.9008,-1.85673 3.01607,-2.42749 4.74445,-3.12316 6.09798,-6.94829 2.99086,-8.45245 -3.20132,-17.06097 -6.86841,-24.11142 -1.67703,-2.56356 -3.21746,-5.21952 -5.03103,-7.69064 -4.32704,-5.89587 -7.36838,-8.81313 -12.48016,-14.02247 -6.54394,-6.66887 -13.25652,-13.1707 -19.88825,-19.7535 -6.36029,-6.42671 -14.42961,-13.8591 -16.50916,-23.02678 -0.30957,-1.36475 -0.35048,-2.77571 -0.52574,-4.16357 0.14536,-1.3875 0.11593,-2.80394 0.43594,-4.16259 2.25869,-9.59134 11.21424,-16.57537 17.04812,-23.99178 6.15628,-7.5553 16.35405,-19.2886 16.63958,-29.56654 0.0362,-1.3007 -0.47308,-2.5601 -0.7096,-3.84013 -0.57993,-1.0369 -0.84051,-2.32709 -1.73985,-3.11064 -7.97963,-6.95228 -12.78712,-3.28452 -20.40935,1.41973 -11.24715,7.83434 -21.78429,16.62149 -33.29467,24.09417 -10.00827,5.87306 -19.65031,10.69044 -31.65738,10.54052 -2.1833,-0.0271 -4.3433,-0.44859 -6.51494,-0.67287 -0.8157,-0.0642 -1.73343,0.20265 -2.44703,-0.19293 -4.4699,-2.4777 -5.03288,-4.26963 -6.73447,-8.84701 -2.53645,-6.82315 -3.74715,-14.0465 -4.4978,-21.24631 -0.12974,-2.46869 -0.25971,-4.93737 -0.38959,-7.40608 -0.0882,-2.36995 -0.14747,-4.74116 -0.26492,-7.10987 -0.25843,-5.21461 -0.46802,-10.76304 -3.01348,-15.50096 -0.71737,-1.33525 -1.78772,-2.45381 -2.68158,-3.68071 -3.51119,-2.24252 -6.74531,-5.37983 -11.23944,-5.38401 -9.48155,-0.01 -14.23928,9.94316 -17.40271,17.10253 -0.90272,3.08154 -1.93341,6.12927 -2.70824,9.2446 -4.17111,16.77078 -5.06459,34.16437 -2.25132,51.22312 0.64494,2.78124 1.12849,5.6039 1.93487,8.34368 2.38754,8.11226 6.79242,15.55844 13.03233,21.33247 z" />
    <path
       style="fill:#ff6600;fill-opacity:1;stroke-width:0.356424"
       id="path60"
       d="m 536.45986,226.32664 c -3.03501,2.29419 -4.36575,6.21719 -2.46585,9.73559 0.3953,0.73208 0.94171,1.43873 1.65481,1.87697 1.64968,1.01375 3.53296,1.59772 5.29946,2.39661 0.80892,-0.52062 1.77905,-0.85455 2.42679,-1.56185 2.84122,-3.10256 3.85008,-8.9128 2.07315,-12.70582 -0.2962,-0.63227 -0.83522,-1.12277 -1.25283,-1.68415 -0.92949,-0.50979 -1.85897,-1.01962 -2.7884,-1.52942 0,0 -0.91099,-0.3528 -0.91099,-0.3528 v 0 c -0.0182,0.0991 -0.0347,0.19811 -0.052,0.29705 0.4566,0.5267 1.03396,0.97116 1.36993,1.58009 2.00492,3.63406 1.11146,9.28324 -1.60189,12.39278 -0.55223,0.63286 -1.40181,0.93513 -2.10276,1.4027 0.25584,0.36616 1.14222,1.34522 0.76742,1.09855 -3.2179,-2.11803 -3.65816,-6.72532 -1.54523,-9.74667 0.43322,-0.61953 1.11683,-1.02497 1.67525,-1.53744 z" />
    <path
       style="fill:#ff6600;fill-opacity:1;stroke-width:0.356424"
       id="path61"
       d="m 897.56995,160.51421 c -3.08147,9.73261 -4.46654,19.84435 -5.23868,29.97914 -0.73201,11.05035 1.92757,20.46075 6.3632,30.45252 3.64722,6.89134 5.16206,10.47272 12.80047,13.80241 0.86961,0.37907 1.86896,0.51388 2.81644,0.43965 1.02594,-0.0803 1.96842,-0.59441 2.95268,-0.8916 0.9719,-0.71043 2.03197,-1.31612 2.91568,-2.13129 6.12271,-5.64809 9.05154,-14.25482 11.71348,-21.82818 3.48323,-9.78831 4.74333,-20.22755 8.04097,-30.06024 0.56051,-1.67122 1.27439,-3.28838 1.91155,-4.93256 2.45447,-4.96196 5.66287,-13.25087 12.07405,-14.40089 0.78516,-0.1407 1.59458,0.0659 2.39191,0.0987 0.69211,0.33893 1.70289,0.34874 2.07641,1.01684 0.24419,0.43685 -1.50999,-0.51214 -1.51533,-0.0146 -0.0147,1.34112 1.11842,2.45628 1.47539,3.75028 0.46235,1.67617 0.74279,3.40018 0.97221,5.12267 0.63471,4.7655 0.48872,7.00117 0.51197,11.82134 -0.35576,11.80523 -2.74332,23.40446 -4.99036,34.96449 -1.95715,9.58038 -3.77583,19.15636 -4.24488,28.92925 0.91654,8.31565 4.1267,15.93715 9.3181,22.53254 2.90457,3.69004 4.87968,5.3283 8.25969,8.52229 7.12934,6.01412 14.4823,11.92301 20.23312,19.31022 1.027,1.31927 1.9325,2.7267 2.89875,4.09003 2.97857,5.24323 6.24341,11.5322 4.56979,17.75178 -0.22953,0.85324 -0.66807,1.63773 -1.00206,2.45662 -0.61512,0.6557 -1.12262,1.42914 -1.84528,1.96708 -3.87884,2.88704 -9.94221,2.90373 -14.4859,2.2501 -1.50404,-0.21636 -2.96499,-0.66209 -4.44749,-0.99314 -1.41971,-0.57049 -2.91765,-0.97917 -4.2591,-1.71147 -0.33761,-0.18422 -0.36162,-0.68564 -0.63122,-0.95815 -1.2134,-1.22641 -2.58897,-2.28947 -3.79875,-3.51933 -3.032,-3.08224 -5.43302,-6.50542 -7.75186,-10.11472 -2.3945,-4.12637 -4.24268,-8.55749 -8.07347,-11.58977 -1.70859,-0.96766 -3.32434,-2.11664 -5.12575,-2.90294 -0.55098,-0.24049 -1.20213,-0.16346 -1.80303,-0.12145 -3.56069,0.24835 -6.31361,2.57488 -8.89448,4.7468 -6.66166,6.11378 -9.9363,14.31144 -12.32051,22.76845 -2.46883,12.28525 -2.9975,24.86931 -4.27895,37.3161 -1.02061,11.17013 -2.67731,22.238 -5.51539,33.09987 -1.29061,4.33372 -3.24263,9.98802 -8.77979,10.18322 -3.39732,0.11976 -4.70809,-1.16182 -7.60296,-2.74601 -0.0386,-0.42011 0.11153,-0.90316 -0.11544,-1.26037 -4.56891,-7.18407 -2.35852,-0.99213 -5.88917,-8.8128 -2.29624,-5.08631 -2.24008,-8.91755 -1.96412,-14.33299 1.30456,-9.86498 4.20731,-19.4244 7.79586,-28.69024 2.13222,-5.53073 4.84154,-10.86127 6.14949,-16.66946 1.02443,-4.54905 0.87069,-5.15342 1.19614,-9.94639 0.12617,-7.47029 -0.32434,-15.44239 -4.594,-21.89792 -0.721,-1.09011 -1.62566,-2.05018 -2.4385,-3.07528 -5.78881,-5.75062 -13.37673,-9.41458 -21.20797,-11.59642 -4.78408,-1.11741 -9.7776,-1.0958 -14.50183,-2.52614 -4.42383,-1.3394 -6.56692,-2.65492 -10.67714,-4.73627 -2.98903,-2.5542 -6.25171,-4.68941 -8.69889,-7.82584 -3.21747,-4.12379 -4.66391,-8.84477 -6.07991,-13.75596 -0.48743,-3.69637 -1.04869,-7.89053 1.02605,-11.29573 1.97404,-3.23996 5.32561,-4.20356 8.73267,-5.17168 1.24797,-0.0874 2.49281,-0.26754 3.74386,-0.26222 3.74294,0.0169 7.47931,0.82534 10.91422,2.27786 1.08134,0.45727 2.1161,1.01707 3.15059,1.57015 0.29593,0.15821 -0.62115,-0.25589 -0.93171,-0.38385 3.96971,2.51806 7.47981,5.76101 11.63314,8.00304 1.91022,1.03113 3.85515,1.99826 5.78266,2.99739 4.73321,1.20162 5.91701,0.23382 6.64133,-4.43822 0.0956,-5.5589 -1.30382,-11.04181 -2.52018,-16.43774 -1.15093,-5.45032 -3.22937,-10.63331 -5.20824,-15.82606 -2.67432,-6.47095 -4.97297,-13.07087 -6.54521,-19.88685 -1.37599,-8.39662 -0.43571,-16.84497 1.14788,-25.13245 1.25133,-4.39829 2.14223,-10.09027 7.67796,-10.86564 0.9071,-0.12705 1.83214,0.0271 2.74816,0.0406 1.8538,0.39248 6.30677,1.32822 7.63733,2.78184 0.45174,0.49354 -1.71011,-1.41352 -1.86583,-0.76611 -0.17494,0.72681 1.17147,0.9511 1.69067,1.49423 0.55431,0.57989 1.0127,1.24243 1.519,1.86365 3.14868,4.3709 3.67882,8.81806 3.64444,14.02844 -0.41613,3.79696 -0.5753,1.8303 0.74809,5.87247 0,0 0.94395,0.49938 0.94395,0.49938 v 0 c 2.7701,-2.16796 1.94571,-0.74634 2.3574,-4.32845 0.0688,-5.28244 -0.38381,-9.80895 -3.50185,-14.29691 -0.4947,-0.64381 -0.93672,-1.33074 -1.48418,-1.93142 -3.68834,-4.04715 -9.92345,-6.94631 -15.37009,-7.85606 -0.9458,0.0247 -1.90681,-0.0943 -2.83748,0.0741 -5.63344,1.0202 -6.60787,6.70589 -7.88245,11.29586 -1.5876,8.34133 -2.54072,16.83178 -1.23691,25.29085 1.5227,6.83583 3.83486,13.44343 6.48945,19.93011 1.97937,5.18373 4.08627,10.34852 5.26572,15.7839 1.22581,5.35014 2.60885,10.78339 2.60054,16.29549 -0.63149,4.52128 -1.75005,5.01594 -6.17095,3.77111 0.63291,0.44545 2.28791,0.67183 1.89876,1.33638 -0.38742,0.66165 -1.34464,-0.7578 -1.99623,-1.16991 -3.34111,-2.11321 -6.39623,-4.63793 -9.67531,-6.83908 -8.6171,-5.08722 -14.26766,-8.59706 -24.65936,-7.25037 -3.52936,1.07158 -6.92048,2.14814 -8.95415,5.51422 -2.11035,3.49306 -1.59157,7.76123 -1.11061,11.55966 1.40454,4.93951 2.82204,9.76767 6.00136,13.94919 4.12289,5.42259 10.38245,8.79478 16.1213,12.17075 4.26198,2.11916 6.19596,3.31518 10.77476,4.67083 4.74312,1.40433 9.74746,1.41241 14.53442,2.5875 6.77993,1.95429 8.87131,2.65154 13.67793,7.22585 0.8252,1.00377 1.741,1.94102 2.47563,3.01124 4.35785,6.34831 4.85653,14.27909 4.74875,21.70106 -0.32101,4.72718 -0.17293,5.36775 -1.18243,9.85814 -1.30256,5.79349 -3.99721,11.11905 -6.11598,16.6384 -3.60642,9.30634 -6.50865,18.90653 -7.85711,28.80886 -0.22066,3.85521 -0.61531,6.00101 0.24392,9.82302 0.99632,4.43189 4.04988,10.57572 7.45852,13.66989 2.29361,2.08202 4.9801,3.69724 7.47016,5.54587 3.03223,1.53552 4.33132,2.76962 7.82774,2.49759 5.61998,-0.43719 7.64354,-6.10212 8.94652,-10.5997 2.79415,-10.89939 4.46759,-21.99238 5.47899,-33.19022 1.24883,-12.42236 1.78173,-24.97805 4.28442,-37.23256 2.34863,-8.38618 5.59391,-16.50215 12.24644,-22.51776 2.08459,-1.71736 4.08302,-3.41681 6.76579,-4.14765 0.64004,-0.17438 1.30662,-0.28126 1.97049,-0.28652 0.57459,-0.003 1.9744,0.75837 1.70403,0.25742 -0.42592,-0.7892 -1.54593,-0.93114 -2.31888,-1.3967 3.97737,2.89556 5.84184,7.34274 8.22644,11.49115 5.75892,9.0198 13.05502,17.07856 23.67712,20.50765 1.49515,0.31348 2.97048,0.74075 4.48548,0.94043 4.67636,0.61631 10.79501,0.50795 14.70956,-2.54862 0.74677,-0.58313 1.26627,-1.40455 1.89935,-2.10684 0.34425,-0.85018 0.79439,-1.6656 1.03264,-2.55053 1.70202,-6.32293 -1.50145,-12.70921 -4.51736,-18.06872 -0.96707,-1.37634 -1.87237,-2.79713 -2.90121,-4.12907 -5.73197,-7.42117 -13.07371,-13.38095 -20.24847,-19.36636 -3.37733,-3.15279 -5.39381,-4.81241 -8.30675,-8.45375 -5.20707,-6.5091 -8.44303,-14.0419 -9.41634,-22.29249 0.42736,-9.76884 2.21533,-19.34045 4.13824,-28.92142 2.19703,-11.60399 4.5661,-23.23929 4.933,-35.07675 -0.0183,-5.70574 0.0245,-11.45872 -1.38474,-17.04416 -0.33477,-1.32676 -0.48488,-2.82165 -1.37096,-3.87202 -2.56812,-3.04422 -4.34602,-3.55625 -7.35636,-4.78583 -0.82342,0.0127 -1.66677,-0.14272 -2.47026,0.0357 -6.49203,1.44104 -9.63401,9.5577 -12.15217,14.72038 -0.64404,1.65427 -1.37005,3.27963 -1.93209,4.96285 -0.86281,2.58391 -2.07152,7.83541 -2.69269,10.38128 -1.61073,6.60187 -3.19628,13.21623 -5.2602,19.69874 -2.59929,7.32279 -5.65903,16.19612 -11.6296,21.61684 -0.86037,0.7811 -1.89781,1.34722 -2.84669,2.02082 -5.23263,1.41106 -0.45504,0.56754 -5.56454,0.2393 -0.18785,-0.0136 0.53986,0.51776 0.41644,0.3772 -0.79154,-0.90163 -1.69164,-1.71268 -2.42291,-2.66267 -1.96087,-2.54745 -3.10949,-4.92028 -4.65639,-7.73884 -4.5547,-9.95871 -7.32784,-19.37916 -6.74069,-30.45299 0.6531,-10.16196 1.96533,-20.2955 4.87978,-30.09365 z" />
    <path
       style="fill:#ff6600;fill-opacity:1;stroke-width:0.356424"
       id="path62"
       d="m 916.16193,272.51156 c -1.27414,5.4777 -1.55917,9.16154 5.15143,11.23698 0.76731,0.23736 1.56033,-0.38404 2.34055,-0.57606 3.60876,-2.58729 4.45334,-6.52992 4.91337,-10.66158 0.0893,-0.80226 0.38426,-1.62157 0.21778,-2.41174 -0.19893,-0.94438 -0.8498,-1.73694 -1.27473,-2.60544 0,0 -0.84212,-0.42784 -0.84212,-0.42784 v 0 c -0.47307,0.40748 -1.17797,0.65004 -1.41922,1.22246 -0.31697,0.75202 -0.0621,1.6285 -0.12503,2.44074 -0.3097,4.00273 -0.95888,7.88218 -4.47061,10.38898 -0.70348,0.13992 -1.71832,-0.17365 -2.11053,0.42 -0.27974,0.42346 1.16859,1.34919 1.26933,0.85343 0.13024,-0.64072 -0.88271,-1.01049 -1.11292,-1.62315 -0.81608,-2.17165 -0.008,-4.57127 0.33412,-6.72941 z" />
    <ellipse
       id="path67"
       style="fill:#006eef;stroke:#000000;stroke-width:0.356424"
       cx="819.20367"
       cy="172.7773"
       rx="0.62282413"
       ry="0.61533993" />
  </g>
</svg>
