<?xml version="1.0" encoding="UTF-8" standalone="no"?>
<!-- Created with Inkscape (http://www.inkscape.org/) -->

<svg
   width="45"
   height="45"
   viewBox="0 0 45 45"
   version="1.1"
   id="svg1"
   inkscape:version="1.3.2 (091e20e, 2023-11-25, custom)"
   sodipodi:docname="bull.svg"
   xmlns:inkscape="http://www.inkscape.org/namespaces/inkscape"
   xmlns:sodipodi="http://sodipodi.sourceforge.net/DTD/sodipodi-0.dtd"
   xmlns="http://www.w3.org/2000/svg"
   xmlns:svg="http://www.w3.org/2000/svg">
  <sodipodi:namedview
     id="namedview1"
     pagecolor="#ffffff"
     bordercolor="#000000"
     borderopacity="0.25"
     inkscape:showpageshadow="2"
     inkscape:pageopacity="0.0"
     inkscape:pagecheckerboard="0"
     inkscape:deskcolor="#d1d1d1"
     inkscape:document-units="px"
     inkscape:zoom="7.2301668"
     inkscape:cx="22.613586"
     inkscape:cy="28.630045"
     inkscape:window-width="1920"
     inkscape:window-height="992"
     inkscape:window-x="-8"
     inkscape:window-y="-8"
     inkscape:window-maximized="1"
     inkscape:current-layer="layer1" />
  <defs
     id="defs1" />
  <g
     inkscape:label="Calque 1"
     inkscape:groupmode="layer"
     id="layer1">
    <ellipse
       style="fill:#6b99d6;fill-opacity:1;stroke-width:3.33155"
       id="path1"
       cx="22.50421"
       cy="22.511654"
       rx="21.017763"
       ry="20.683857" />
    <path
       style="fill:#132843;fill-opacity:1;stroke-width:3.33155"
       d="m 25.895354,7.6477656 c 0.819951,-0.2163609 1.575756,0.2195816 2.286432,0.5803819 0.09179,0.046589 0.188456,0.083115 0.285793,0.1160836 0.03614,0.012042 0.08739,-0.027197 0.114337,0 0.01355,0.013703 -0.01355,0.044346 0,0.058049 0.09713,0.098658 0.235671,0.1450235 0.342964,0.2321713 0.104582,0.084928 0.18125,0.2052494 0.285793,0.2901813 0.03326,0.026851 0.08421,0.02753 0.114337,0.058049 0.51974,0.5277243 -0.476532,-0.2871266 0.342964,0.4062704 0.03274,0.02753 0.07621,0.038713 0.114323,0.058049 0.03813,0.058049 0.06576,0.1247756 0.114336,0.1741281 0.03009,0.030547 0.08421,0.027529 0.114337,0.058049 0.07856,0.079765 0.104813,0.1999442 0.171497,0.2901813 0.131325,0.1777875 -0.03657,-0.09517 0.171495,0.1160835 0.360306,0.365838 -0.479549,-0.2490903 0.22866,0.290181 0.01522,0.01177 0.04368,-0.0137 0.05716,0 0.04857,0.04931 0.05938,0.132264 0.114336,0.17413 0.03042,0.02317 0.08262,-0.02148 0.114337,0 0.03545,0.02383 0.0238,0.08907 0.05716,0.116083 0.168222,0.136665 0.552657,0.335401 0.743087,0.464307 0.119193,0.08066 0.213684,0.224552 0.342969,0.290181 0.01719,0.0087 0.04367,-0.0137 0.05716,0 0.08997,0.09135 0.131426,0.191485 0.228661,0.290182 0.03759,0.03817 0.198872,0.08339 0.228627,0.174128 0.01196,0.03669 -0.02117,0.08389 0,0.116083 0.02347,0.03599 0.08421,0.02753 0.114337,0.05805 0.241885,-0.09235 0.08186,0.182722 0.114337,0.232171 0.02975,0.04552 0.06947,0.0857 0.114337,0.116084 0.01586,0.0108 0.04863,-0.01745 0.05716,0 0.01719,0.03462 -0.01196,0.07936 0,0.116084 0.09542,0.290584 0.01254,-0.09672 0.114337,0.05805 0.280635,0.4274 -0.206278,-0.09013 0.171496,0.34823 0.0887,0.102963 0.19811,0.186315 0.285792,0.290182 0.02778,0.0329 0.02712,0.08551 0.05716,0.116083 0.03009,0.03055 0.08418,0.02753 0.114337,0.05805 0.192389,0.195345 0.295248,0.535129 0.457283,0.7545 0.0485,0.06566 0.09919,0.137399 0.171497,0.174129 0.01719,0.0087 0.05115,-0.01846 0.05716,0 0.01818,0.05506 -0.03042,0.124914 0,0.174129 0.07141,0.116014 0.197086,0.187255 0.285792,0.290181 0.04523,0.0525 0.07621,0.116084 0.114336,0.174129 0.07621,0.09672 0.146566,0.198535 0.228661,0.290181 0.108746,0.121454 0.236496,0.224686 0.342964,0.34823 0.0813,0.09434 0.193814,0.300152 0.228628,0.40627 0.01196,0.03669 -0.01488,0.0805 0,0.116084 0.127593,0.302266 0.325865,0.570301 0.457288,0.870577 0.172687,0.394479 0.394411,0.76495 0.571606,1.160771 0.12755,0.284944 -0.01852,0.08634 0.114322,0.464306 0.122666,0.348767 0.323485,0.64705 0.457286,0.986656 0.40085,1.01751 -0.115548,-0.235898 0.171495,0.638422 0.08448,0.257349 0.263343,0.495754 0.342965,0.7545 0.135101,0.438921 0.209782,0.895365 0.342965,1.334884 0.07803,0.257484 0.320673,0.563412 0.342964,0.812539 0.01553,0.173391 -0.02281,0.349758 0,0.522348 0.01586,0.121287 0.08818,0.22878 0.114337,0.34823 0.06732,0.307637 0.08336,0.872892 0.114337,1.218807 0.01885,0.210754 -0.02084,0.427812 0,0.638422 0.02975,0.30183 0.12412,0.52399 0.171495,0.812541 0.05069,0.308778 0.07088,0.619971 0.114336,0.928616 0.02148,0.151703 -0.01885,0.312202 0,0.464305 0.02182,0.176982 0.09493,0.345076 0.114323,0.522347 0.04784,0.437094 0,0.894035 0,1.334887 0,0.282728 0.02513,0.589757 0,0.870575 -0.0248,0.27578 -0.137637,0.537743 -0.171495,0.812538 -0.02679,0.217099 0.04625,0.138243 -0.05716,0.34823 -0.0649,0.131793 -0.101009,0.277492 -0.171496,0.406271 -0.03925,0.07174 -0.123918,0.107724 -0.171495,0.174128 -0.105734,0.147609 -0.179496,0.317138 -0.285793,0.464307 -0.244002,0.33782 -0.521311,0.529316 -0.800252,0.812541 -0.178968,0.181715 -0.297398,0.426103 -0.514448,0.580386 -1.066661,0.758125 0.409232,-0.458603 -0.685928,0.406266 -0.155824,0.123073 -0.286059,0.301964 -0.457286,0.40627 -0.07307,0.04451 -0.157741,0.06808 -0.22866,0.116084 -0.131657,0.08913 -0.21623,0.251744 -0.342964,0.348231 -0.117147,0.08919 -0.940213,0.434294 -1.028895,0.46431 -0.05422,0.01846 -0.116743,-0.01679 -0.171495,0 -0.267046,0.08134 -0.529321,0.279472 -0.800252,0.348231 -0.08765,0.02216 -0.20026,-0.02887 -0.285793,0 -0.189549,0.06415 -0.822137,0.128001 -1.028894,0.05803 -0.356728,-0.12072 -0.763652,-0.489782 -0.857411,-0.870576 -0.0092,-0.03754 0.01719,-0.08148 0,-0.116083 -0.02413,-0.04894 -0.09023,-0.06714 -0.114337,-0.116084 -0.05389,-0.10944 -0.06536,-0.236436 -0.114322,-0.348231 -0.02777,-0.06375 -0.09261,-0.107932 -0.114337,-0.174128 -0.127161,-0.387355 -0.03621,-0.230226 -0.05716,-0.464311 -0.02743,-0.307939 -0.121412,-0.776566 -0.05716,-1.102731 0.09353,-0.474848 0.404252,-0.819869 0.62877,-1.218808 0.06341,-0.112693 0.100576,-0.240261 0.171495,-0.34823 0.01052,-0.01611 0.04192,0.01177 0.05716,0 0.06467,-0.04925 0.126628,-0.105814 0.171495,-0.17413 0.03343,-0.05089 0.01852,-0.127128 0.05716,-0.174128 0.06099,-0.07432 0.156948,-0.110409 0.228628,-0.174128 0.20674,-0.183696 0.292735,-0.371523 0.457285,-0.580386 0.06735,-0.08547 0.168851,-0.141096 0.228661,-0.232138 0.04728,-0.07197 0.06705,-0.160164 0.114336,-0.232172 0.264304,-0.40252 0.152222,-0.170637 0.400127,-0.464306 0.241159,-0.285683 0.409276,-0.631466 0.628768,-0.928616 0.03241,-0.04378 0.08658,-0.06915 0.114336,-0.116084 0.03108,-0.05247 0.03009,-0.119405 0.05716,-0.174128 0.228363,-0.463725 0.484,-0.914514 0.685933,-1.392923 0.393144,-0.931426 0.08209,-0.24644 0.457285,-1.334884 0.152352,-0.442011 0.414601,-0.858131 0.457285,-1.334886 0.04566,-0.509958 0,-1.055833 0,-1.567037 0,-0.391523 0.04275,-0.828238 0,-1.218807 -0.06308,-0.576489 -0.06722,0.311196 -0.114337,-0.406271 -0.01383,-0.212331 0.01752,-0.426349 0,-0.638422 -0.0023,-0.0272 -0.04942,-0.03189 -0.05716,-0.05805 -0.05049,-0.170838 -0.08288,-0.346861 -0.114337,-0.522345 -0.163462,-0.912929 -0.418758,-1.662364 -0.68593,-2.553694 -0.06324,-0.211022 -0.128875,-0.422125 -0.171495,-0.638422 -0.01488,-0.07588 0.0076,-0.155161 0,-0.232138 -0.01488,-0.150596 -0.158965,-0.890453 -0.171495,-0.928616 -0.01719,-0.0519 -0.09245,-0.06606 -0.114337,-0.116084 -0.05634,-0.128707 -0.06454,-0.274807 -0.114322,-0.40627 -0.04589,-0.121122 -0.127824,-0.226265 -0.171495,-0.348232 -0.145046,-0.404971 0.02084,-0.162614 -0.114337,-0.464305 -0.706907,-1.579078 0.117147,0.248923 -0.400127,-0.696462 -0.04983,-0.09107 -0.05739,-0.203502 -0.114337,-0.290181 -0.13536,-0.206154 -0.32193,-0.374241 -0.457288,-0.580382 -0.09452,-0.143983 -0.14703,-0.312406 -0.228627,-0.464311 -0.139596,-0.259867 -0.111354,-0.111018 -0.285793,-0.406266 -0.230778,-0.390546 -0.428551,-0.845479 -0.685929,-1.218811 -0.02447,-0.03545 -0.07621,-0.03867 -0.114337,-0.05805 -0.09529,-0.135419 -0.197185,-0.266278 -0.285793,-0.406269 -0.272798,-0.4308904 -0.495412,-0.9092899 -0.85741,-1.2768473 -0.07856,-0.079765 -0.207237,-0.094367 -0.285793,-0.1741282 -0.03009,-0.030547 -0.0271,-0.085509 -0.05716,-0.1160836 -0.302649,-0.3073005 -1.278967,-0.549912 -1.714817,-0.6384232 -0.154501,-0.031225 -0.219304,-0.1113223 -0.342965,-0.1741281 -0.05111,-0.025855 -0.115417,0.011349 -0.171495,0 -0.156418,-0.03189 -0.301497,-0.1741296 -0.457285,-0.1741296 -0.143256,0 -0.07287,-0.10735 -0.171495,-0.1741281 -0.08686,-0.058782 -0.285793,0.097717 -0.285793,-0.058049"
       id="path2" />
    <path
       style="fill:#add8f6;fill-opacity:1;stroke-width:3.33155"
       d="m 13.09134,7.4736499 c -0.251871,0.1688921 -0.556536,0.3278133 -0.743091,0.5803819 -0.04122,0.055793 -0.06573,0.1247757 -0.114337,0.1741282 -0.03009,0.030547 -0.0816,0.030215 -0.114337,0.058049 -0.176256,0.1491522 -0.34468,0.3076042 -0.514446,0.4643066 -0.245953,0.2270018 -0.67853,0.7142138 -0.857412,0.9866566 -0.112406,0.1712077 -0.319913,0.2667818 -0.457288,0.4062688 -0.128055,0.130021 -0.331714,0.452882 -0.4572857,0.580383 -0.1164405,0.118229 -0.3308504,0.245801 -0.4572881,0.406269 -0.05951,0.07553 -0.099784,0.168456 -0.1714951,0.232138 -0.155096,0.137814 -0.3535117,0.217503 -0.5144464,0.348232 -0.1386306,0.112595 0.022147,0.05445 -0.1714965,0.290181 -0.043977,0.05358 -0.1228958,0.06674 -0.1714951,0.116084 -0.078559,0.07977 -0.092939,0.210419 -0.1714951,0.290181 -0.030086,0.03055 -0.07621,0.03871 -0.1143368,0.05805 -0.057161,0.05805 -0.1209794,0.110007 -0.1714951,0.174128 -0.026787,0.03377 -0.023804,0.08907 -0.057161,0.116083 -0.066527,0.05405 -0.160485,0.06415 -0.2286275,0.116084 -0.015216,0.01177 0.010519,0.04192 0,0.05805 -0.1089045,0.165869 -0.2351735,0.214748 -0.3429671,0.406269 -0.1121754,0.199341 -0.1985411,0.455105 -0.3429643,0.638422 -0.026787,0.03377 -0.084207,0.02753 -0.1143368,0.05805 -0.1418727,0.144049 -0.2233378,0.360393 -0.3429642,0.522346 -0.1295097,0.175337 -0.2808003,0.34061 -0.4001269,0.522345 -0.033429,0.05089 -0.021167,0.125177 -0.057161,0.17413 -0.192423,0.260505 -0.1767516,0.07412 -0.2857916,0.40627 -0.01196,0.03669 0.014265,0.08017 0,0.116084 -0.057031,0.144823 -0.1434289,0.276484 -0.2286275,0.40627 -0.044827,0.06828 -0.1353309,0.100707 -0.1714965,0.174128 -0.01719,0.03462 0.021167,0.08389 0,0.116084 -0.3469513,0.528415 0.031081,-0.210855 -0.1143368,0.232171 -0.021815,0.06667 -0.1364837,0.08054 -0.1714965,0.116084 -0.00403,0.004 -0.1489131,0.244323 -0.1714951,0.290181 -0.1269593,0.257853 -0.1602214,0.557491 -0.285793,0.812537 -0.087752,0.178157 -0.2103437,0.338486 -0.2857916,0.522345 -0.021815,0.05358 0.021167,0.120209 0,0.17413 0.3505752,0.606963 -0.257757,0.291255 -0.3429657,0.464307 -0.049524,0.100609 0,1.765169 0,1.973307 0,0.04965 -0.040173,0.423515 0,0.46431 0.060346,0.06123 0.8854725,0.369863 1.0288943,0.40627 0.1630974,0.0414 0.1571464,-0.02282 0.3429671,0.05805 0.1501378,0.06533 2.0598908,0.927549 2.172108,0.870577 0.2341159,-0.11888 0.3148548,-0.581672 0.4001269,-0.812538 0.1654115,-0.447836 0.3585665,-0.882678 0.5144464,-1.334887 0.045821,-0.132942 0.055677,-0.278632 0.1143368,-0.406266 0.1409505,-0.306664 0.3538216,-0.574051 0.5144464,-0.870577 0.4271484,-0.788562 0.3229542,-0.705545 0.8574107,-1.392926 0.2636084,-0.339019 0.6385894,-0.674389 0.8574144,-1.044691 0.491475,-0.831704 -0.446998,0.583533 0.400123,-0.522347 0.0523,-0.06828 0.05978,-0.165702 0.114337,-0.232138 0.436644,-0.532018 0.33403,-0.305926 0.628767,-0.638421 0.407774,-0.46004 0.870622,-0.979536 1.257537,-1.450963 0.02712,-0.03323 0.02876,-0.08375 0.05716,-0.116084 0.161113,-0.184033 0.365556,-0.327981 0.514446,-0.522346 0.100648,-0.131364 0.182009,-0.277458 0.285793,-0.40627 0.427766,-0.530857 0.03356,0.09225 0.457285,-0.522346 0.250845,-0.363831 0.488112,-0.740282 0.743091,-1.102732 0.05537,-0.07873 0.133962,-0.143245 0.171495,-0.232138 0.02248,-0.05334 -0.02248,-0.120789 0,-0.174129 0.03752,-0.0889 0.118631,-0.15167 0.171495,-0.232138 0.119424,-0.181884 0.177216,-0.396599 0.285793,-0.580385 0.106931,-0.180944 0.294191,-0.3340913 0.400123,-0.5223469 0.02976,-0.053108 0.02612,-0.1216615 0.05716,-0.1741281 0.104207,-0.1763441 0.275774,-0.3019641 0.400127,-0.4643095 0.137997,-0.1801378 0.212063,-0.3942966 0.342964,-0.5803819 0.03141,-0.044512 0.08444,-0.070533 0.114337,-0.1160836 0.05138,-0.078256 -0.298257,-0.2772235 -0.342964,-0.2901813 -0.0733,-0.021149 -0.158601,0.030547 -0.228661,0 C 16.50376,8.0799918 16.472348,7.9857907 16.406559,7.9380853 15.953102,7.6092311 16.379772,7.9804799 16.006436,7.7639557 15.793348,7.640315 15.617542,7.4969053 15.377665,7.4157257 15.258011,7.3752411 15.090219,7.3959194 14.977542,7.357677 14.91237,7.3355177 14.87211,7.2607631 14.806047,7.2415934 c -0.204492,-0.059322 -0.473681,0.030879 -0.68593,0 -0.132046,-0.019142 -0.783813,-0.1327757 -0.85741,-0.058049 -0.01355,0.013702 0.01354,0.044346 0,0.058049 -0.01355,0.013702 -0.03808,0 -0.05716,0 -0.03813,0.077384 -0.07621,0.1547592 -0.114337,0.2321381 z"
       id="path3" />
    <path
       style="fill:#add8f6;fill-opacity:1"
       d="M 53.664045,31.94947 73.027361,30.151448"
       id="path4" />
  </g>
</svg>
